<svg width="66" height="73" xmlns="http://www.w3.org/2000/svg" xmlns:xlink="http://www.w3.org/1999/xlink" version="1.1">
 <defs>
  <g id="a">
   <circle cx="195.32" cy="197.47" r="4.3" fill="#b5d98b" id="svg_1"/>
   <circle cx="195.32" cy="197.47" r="3.1" fill="#6dc235" id="svg_2"/>
   <circle cx="195.32" cy="197.47" r="1.9" fill="#093" id="svg_3"/>
  </g>
 </defs>
 <g>
  <title>Layer 1</title>
  <g stroke="null" id="svg_4">
   <path stroke="null" fill="#ffc705" d="m33.00078,3.64779a32.87312,32.83064 0 0 0 -32.87312,32.83064a32.87312,32.83064 0 0 0 15.71473,27.95486l0,2.36873c-1.20911,0.55735 -2.07056,1.67752 -2.19846,3.06949l-0.00029,0c-0.94829,0.21486 -1.62209,1.05622 -1.62309,2.02781l0,0.48404l41.95904,0l0,-0.48404c0,-0.97159 -0.6748,-1.81295 -1.62305,-2.02781l-0.00029,0c-0.12774,-1.39195 -0.98939,-2.51213 -2.19846,-3.06949l0,-2.35286a32.87312,32.83064 0 0 0 15.71453,-27.97113a32.87312,32.83064 0 0 0 -32.87312,-32.83064l0.00155,0.00041l0.00002,0z" id="svg_5"/>
   <path stroke="null" fill="#1b4392" d="m33.00069,9.93931c-14.67579,0 -26.57345,11.88168 -26.57345,26.53911c0.00521,9.80709 5.4257,18.81171 14.09572,23.41675l24.93998,0c8.67532,-4.60118 14.10142,-13.60661 14.10937,-23.41675c0,-14.65683 -11.89705,-26.53911 -26.57345,-26.53911l0.00183,0l-0.00001,0z" id="svg_6"/>
   <g stroke="null" transform="matrix(0.521041 0 0 0.520368 -54.3925 -60.1679)" id="svg_7">
    <use stroke="null" xlink:href="#a" y="24.65797" x="2.50748" id="svg_8"/>
    <use stroke="null" xlink:href="#a" y="24.65797" x="11.10748" id="svg_9"/>
    <use stroke="null" xlink:href="#a" y="24.65797" x="-14.69252" id="svg_10"/>
    <use stroke="null" xlink:href="#a" y="24.65797" x="-6.09253" id="svg_11"/>
    <use stroke="null" xlink:href="#a" y="24.65797" x="-31.89252" id="svg_12"/>
    <use stroke="null" xlink:href="#a" y="24.65797" x="-23.29252" id="svg_13"/>
    <use stroke="null" xlink:href="#a" y="24.65797" x="-49.09253" id="svg_14"/>
    <use stroke="null" xlink:href="#a" y="24.65797" x="-40.49252" id="svg_15"/>
    <use stroke="null" xlink:href="#a" y="24.65797" x="-66.29252" id="svg_16"/>
    <use stroke="null" xlink:href="#a" y="24.65797" x="-57.69252" id="svg_17"/>
    <use stroke="null" xlink:href="#a" y="24.65797" x="6.80748" id="svg_18"/>
    <use stroke="null" xlink:href="#a" y="24.65797" x="-10.39252" id="svg_19"/>
    <use stroke="null" xlink:href="#a" y="24.65797" x="-1.79252" id="svg_20"/>
    <use stroke="null" xlink:href="#a" y="24.65797" x="-27.59253" id="svg_21"/>
    <use stroke="null" xlink:href="#a" y="24.65797" x="-18.99252" id="svg_22"/>
    <use stroke="null" xlink:href="#a" y="24.65797" x="-44.79252" id="svg_23"/>
    <use stroke="null" xlink:href="#a" y="24.65797" x="-36.19252" id="svg_24"/>
    <use stroke="null" xlink:href="#a" y="24.65797" x="-61.99252" id="svg_25"/>
    <use stroke="null" xlink:href="#a" y="24.65797" x="-53.39252" id="svg_26"/>
    <use stroke="null" xlink:href="#a" y="28.95797" x="6.80748" id="svg_27"/>
    <use stroke="null" xlink:href="#a" y="28.95797" x="-10.39252" id="svg_28"/>
    <use stroke="null" xlink:href="#a" y="28.95797" x="-1.79252" id="svg_29"/>
    <use stroke="null" xlink:href="#a" y="28.95797" x="-27.59253" id="svg_30"/>
    <use stroke="null" xlink:href="#a" y="28.95797" x="-18.99252" id="svg_31"/>
    <use stroke="null" xlink:href="#a" y="28.95797" x="-44.79252" id="svg_32"/>
    <use stroke="null" xlink:href="#a" y="28.95797" x="-36.19252" id="svg_33"/>
    <use stroke="null" xlink:href="#a" y="28.95797" x="-61.99252" id="svg_34"/>
    <use stroke="null" xlink:href="#a" y="28.95797" x="-53.39252" id="svg_35"/>
    <use stroke="null" xlink:href="#a" y="28.95797" x="-6.09253" id="svg_36"/>
    <use stroke="null" xlink:href="#a" y="28.95797" x="2.50748" id="svg_37"/>
    <use stroke="null" xlink:href="#a" y="28.95797" x="-23.29252" id="svg_38"/>
    <use stroke="null" xlink:href="#a" y="28.95797" x="-14.69252" id="svg_39"/>
    <use stroke="null" xlink:href="#a" y="28.95797" x="-40.49252" id="svg_40"/>
    <use stroke="null" xlink:href="#a" y="28.95797" x="-31.89252" id="svg_41"/>
    <use stroke="null" xlink:href="#a" y="28.95797" x="-57.69252" id="svg_42"/>
    <use stroke="null" xlink:href="#a" y="28.95797" x="-49.09253" id="svg_43"/>
    <use stroke="null" xlink:href="#a" y="33.25797" x="-6.09253" id="svg_44"/>
    <use stroke="null" xlink:href="#a" y="33.25797" x="2.50748" id="svg_45"/>
    <use stroke="null" xlink:href="#a" y="33.25797" x="-23.29252" id="svg_46"/>
    <use stroke="null" xlink:href="#a" y="33.25797" x="-14.69252" id="svg_47"/>
    <use stroke="null" xlink:href="#a" y="33.25797" x="-40.49252" id="svg_48"/>
    <use stroke="null" xlink:href="#a" y="33.25797" x="-31.89252" id="svg_49"/>
    <use stroke="null" xlink:href="#a" y="33.25797" x="-57.69252" id="svg_50"/>
    <use stroke="null" xlink:href="#a" y="33.25797" x="-49.09253" id="svg_51"/>
    <use stroke="null" xlink:href="#a" y="33.25797" x="-1.79252" id="svg_52"/>
    <use stroke="null" xlink:href="#a" y="33.25797" x="-18.99252" id="svg_53"/>
    <use stroke="null" xlink:href="#a" y="33.25797" x="-10.39252" id="svg_54"/>
    <use stroke="null" xlink:href="#a" y="33.25797" x="-36.19252" id="svg_55"/>
    <use stroke="null" xlink:href="#a" y="33.25797" x="-27.59253" id="svg_56"/>
    <use stroke="null" xlink:href="#a" y="33.25797" x="-53.39252" id="svg_57"/>
    <use stroke="null" xlink:href="#a" y="33.25797" x="-44.79252" id="svg_58"/>
   </g>
   <path stroke="null" fill="#3c2815" d="m33.00132,0.61696c-0.9487,0.47732 -1.68009,1.29716 -2.04571,2.29326c-1.16881,0.07278 -2.17769,0.70289 -2.77283,1.62231c-15.83287,2.3787 -27.54905,15.95459 -27.56942,31.9458c0.01371,11.34386 5.97664,21.85251 15.71453,27.69043l0,2.95537c-1.29649,0.47434 -2.22148,1.71794 -2.22168,3.17709c-0.16324,0.00061 -0.32836,0.02404 -0.48385,0.07368c-0.66527,0.2094 -1.11496,0.82732 -1.11579,1.5239l40.98751,0c0,-0.6966 -0.45053,-1.3145 -1.11579,-1.5239c-0.15548,-0.04964 -0.3206,-0.07316 -0.48385,-0.07368c0,-1.45919 -0.92511,-2.70273 -2.22168,-3.17709l0,-2.96147c9.73627,-5.83853 15.69946,-16.34331 15.71554,-27.68432c-0.01382,-15.99894 -11.73716,-29.58419 -27.57961,-31.96003c-0.596,-0.911 -1.59952,-1.53515 -2.76223,-1.60778c-0.3657,-0.99607 -1.0971,-1.81591 -2.04571,-2.29326l0.00057,-0.00029zm-0.00053,9.32195c14.67579,0 26.57345,11.88168 26.57345,26.53911c-0.00987,10.19784 -5.86991,19.48805 -15.07581,23.90086l-23.03358,-0.00003c-9.21466,-4.4057 -15.02244,-13.69734 -15.0365,-23.90086c0.00001,-14.65683 11.89705,-26.53911 26.57345,-26.53911l-0.00102,0.00003l0.00001,0z" id="svg_59"/>
   <path stroke="null" fill="#ffc705" d="m33.00069,9.4552c-14.94341,-0.00005 -27.05819,12.09831 -27.05819,27.02323c0.0073,10.03165 5.57885,19.23359 14.47048,23.90086l25.17828,0c8.88979,-4.66789 14.45908,-13.86963 14.4656,-23.90086c-0.0001,-14.92411 -12.11417,-27.02323 -27.05819,-27.02323l0.00204,0l-0.00001,0zm0,0.48376c14.67579,0.00001 26.57345,11.88168 26.57345,26.53911c-0.00833,9.80993 -5.43425,18.81537 -14.10937,23.41675l-24.93998,0c-8.66982,-4.60483 -14.09043,-13.60966 -14.09572,-23.41675c0.00005,-14.65683 11.89705,-26.53911 26.57345,-26.53911l-0.00183,0l0.00001,0z" id="svg_60"/>
   <g stroke="null" transform="matrix(0.521041 0 0 0.520368 -16.2289 -92.8542)" id="svg_61">
    <path stroke="#ffc705" d="m104.14548,282.28097l2.0779,6.9593c0.66894,2.319 2.4487,3.3869 4.2168,2.9931c-0.67159,1.1281 -1.5904,2.4169 -2.8333,2.4169c-0.90097,0 -1.0446,-0.46577 -1.6253,-0.58465c-0.88672,-0.13447 -2.8099,0.58895 -2.97,-0.42095l0,-8.1755c0.378,-1.0627 0.75601,-2.1255 1.134,-3.1882l-0.0001,0z" fill="#1985c3" stroke-linecap="round" stroke-width="0.1" id="svg_62"/>
    <path stroke="null" d="m88.87448,286.25097c0.17216,0.17329 0.34442,0.32716 0.51704,0.47249c0.57765,-0.58048 1.3311,-1.149 2.1398,-1.4324c0.39018,-0.76635 0.91012,-1.5912 1.508,-2.2155c-0.18836,-0.11426 -0.37645,-0.25752 -0.5543,-0.43523c-0.17768,-0.17788 -0.32134,-0.36631 -0.43559,-0.55466c-0.62422,0.59791 -1.4491,1.1179 -2.2155,1.508c-0.28339,0.80871 -0.85194,1.5622 -1.4324,2.1398c0.14532,0.17262 0.29957,0.34525 0.47286,0.51741l0.00009,0.00009z" fill="#ffc705" id="svg_63"/>
    <path stroke="null" d="m100.09048,286.25097c0.17329,-0.17216 0.32716,-0.34442 0.47249,-0.51704c-0.58048,-0.57765 -1.149,-1.3311 -1.4324,-2.1398c-0.76635,-0.39019 -1.5912,-0.91013 -2.2155,-1.508c-0.11426,0.18835 -0.25752,0.37645 -0.43523,0.5543c-0.17788,0.17768 -0.36631,0.32134 -0.55466,0.43559c0.59791,0.62422 1.1179,1.4491 1.508,2.2155c0.80871,0.28339 1.5622,0.85193 2.1398,1.4324c0.17262,-0.14532 0.34525,-0.29957 0.51741,-0.47286l0.00009,-0.00009z" fill="#ffc705" id="svg_64"/>
    <path stroke="#ffc705" d="m91.62548,281.36097c-0.49838,0.0182 -0.99749,0.0961 -1.4878,0.2067c0.0967,1.4639 1.6319,2.6925 2.3859,3.0649c0.00026,-0.00053 0.00079,-0.001 0.0011,-0.002c-0.02805,0.1341 -0.04225,0.27073 -0.04237,0.40773c0.00007,1.1045 0.8954,1.9998 1.9999,1.9999c1.1045,-0.00007 1.9998,-0.89541 1.9999,-1.9999c-0.00079,-0.13813 -0.01582,-0.27581 -0.04496,-0.41083c0.0011,0.002 0.0021,0.003 0.0031,0.005c0.75401,-0.37246 2.2897,-1.6011 2.3864,-3.0649c-0.49027,-0.11057 -0.98938,-0.1885 -1.4878,-0.2067c-0.22292,0.92651 -0.9371,1.7005 -1.7467,2.0143c0.00053,0.0008 0.0011,0.001 0.0016,0.002c-0.71086,0.30592 -1.5566,0.24578 -2.2242,0.002c0.00079,-0.001 0.0019,-0.002 0.0026,-0.004c-0.80956,-0.31383 -1.5237,-1.0878 -1.7467,-2.0143l0.00003,0.0001z" fill="#1985c3" stroke-width="0.1" id="svg_65"/>
    <path stroke="#ffc705" d="m103.21348,283.64097l1.5579,8.9389c0.16672,1.2212 -1.7607,-0.42075 -1.7607,1.0624c0,-1.4764 1.9222,0.16017 1.7607,-1.0624c-0.12117,-0.75957 -1.435,-1.0926 -2.6919,-0.33479l0,-5.4159c0.378,-1.0627 0.75601,-2.1255 1.134,-3.1882l0,-0.00001z" fill="#1985c3" stroke-linecap="round" stroke-width="0.1" id="svg_66"/>
    <path stroke="#ffc705" d="m84.82248,282.28097l-2.0779,6.9593c-0.66894,2.319 -2.4487,3.3869 -4.2168,2.9931c0.67159,1.1281 1.5904,2.4169 2.8333,2.4169c0.90097,0 1.0446,-0.46577 1.6253,-0.58465c0.88672,-0.13447 2.8099,0.58895 2.97,-0.42095l0,-8.1755c-0.378,-1.0627 -0.75601,-2.1255 -1.134,-3.1882l0.0001,0z" fill="#1985c3" stroke-linecap="round" stroke-width="0.1" id="svg_67"/>
    <path stroke="#ffc705" d="m85.75348,283.64097l-1.5579,8.9389c-0.16672,1.2212 1.7607,-0.42075 1.7607,1.0624c0,-1.4764 -1.9222,0.16017 -1.7607,-1.0624c0.12117,-0.75957 1.435,-1.0926 2.6919,-0.33479l0,-5.4159c-0.378,-1.0627 -0.75601,-2.1255 -1.134,-3.1882l0,-0.00001z" fill="#1985c3" stroke-linecap="round" stroke-width="0.1" id="svg_68"/>
    <path stroke="null" d="m94.48348,270.84097a9.8,9.8 0 0 0 -9.7999,9.8004a9.8,9.8 0 0 0 9.7999,9.7999a9.8,9.8 0 0 0 9.7999,-9.7999a9.8,9.8 0 0 0 -9.7999,-9.8004zm0,2.0004a7.8,7.8 0 0 1 7.8,7.8a7.8,7.8 0 0 1 -7.8,7.8a7.8,7.8 0 0 1 -7.8,-7.8a7.8,7.8 0 0 1 7.8,-7.8z" fill="#ffc705" id="svg_69"/>
    <path stroke="null" d="m94.48348,277.69097a2.95,2.95 0 0 0 -2.9502,2.9502a2.95,2.95 0 0 0 2.9502,2.9497a2.95,2.95 0 0 0 2.9502,-2.9497a2.95,2.95 0 0 0 -2.9502,-2.9502zm0,1.7002a1.25,1.25 0 0 1 1.2501,1.2501a1.25,1.25 0 0 1 -1.2501,1.25a1.25,1.25 0 0 1 -1.2501,-1.25a1.25,1.25 0 0 1 1.2501,-1.2501z" fill="#ffc705" id="svg_70"/>
    <path stroke="#ffc705" d="m98.26448,279.85097c2.8328,-1.6424 2.4,-3.3259 4.6013,-4.9671c1.1897,-0.76787 3.1544,-0.72834 3.1254,1.0583c-1.819,1.0032 -3.3106,2.1701 -5.1296,3.1733l-1.5457,1.6997l-1.5964,-0.65778l0.545,-0.30642z" fill="#1985c3" stroke-linecap="round" stroke-width="0.1" id="svg_71"/>
    <path stroke="#ffc705" d="m99.86948,279.45097c2.2252,-1.662 2.7675,-3.8009 4.6013,-4.0741c2.0715,-0.31746 3.6987,0.57669 3.6987,2.4982c0,1.3764 -1.983,1.9559 -2.5128,2.1104l-0.22127,-0.55889c0.16976,-0.061 0.70522,-0.45139 0.41039,-1.0316c-1.1042,-1.8925 -3.5004,0.6688 -5.4232,1.5213l-1.6304,0.29873l1.07728,-0.76404z" fill="#1985c3" stroke-linecap="round" stroke-width="0.10007" id="svg_72"/>
    <path stroke="null" d="m102.41648,280.64097c0.0008,-0.24427 -0.0122,-0.47488 -0.0315,-0.6997c-0.81892,0.002 -1.7537,-0.12877 -2.5259,-0.50022c-0.81779,0.26599 -1.7687,0.48162 -2.6329,0.50022c0.0524,0.21398 0.0841,0.44828 0.0842,0.6997c-0.00014,0.25142 -0.0318,0.48625 -0.0842,0.70022c0.86418,0.0186 1.8151,0.23421 2.6329,0.50022c0.77224,-0.37146 1.707,-0.5022 2.5259,-0.50022c0.0193,-0.22481 0.0323,-0.45595 0.0315,-0.70022z" fill="#ffc705" id="svg_73"/>
    <path stroke="null" d="m94.49148,288.57097c0.24427,0.0008 0.47488,-0.0122 0.6997,-0.0315c-0.002,-0.81892 0.12877,-1.7537 0.50022,-2.5259c-0.26599,-0.81779 -0.48162,-1.7687 -0.50022,-2.6329c-0.21398,0.0524 -0.44828,0.0841 -0.6997,0.0842c-0.25142,-0.00014 -0.48625,-0.0318 -0.70022,-0.0842c-0.0186,0.86418 -0.23421,1.8151 -0.50022,2.6329c0.37146,0.77224 0.5022,1.707 0.50022,2.5259c0.22481,0.0193 0.45595,0.0323 0.70022,0.0315z" fill="#ffc705" id="svg_74"/>
    <path stroke="null" d="m94.48148,272.71097c-0.24427,-0.0008 -0.47488,0.0122 -0.6997,0.0315c0.002,0.81892 -0.12877,1.7537 -0.50022,2.5259c0.26599,0.81779 0.48162,1.7687 0.50022,2.6329c0.21398,-0.0524 0.44828,-0.0841 0.6997,-0.0842c0.25142,0.00014 0.48625,0.0318 0.70022,0.0842c0.0186,-0.86418 0.23421,-1.8151 0.50022,-2.6329c-0.37146,-0.77224 -0.5022,-1.707 -0.50022,-2.5259c-0.22481,-0.0193 -0.45595,-0.0323 -0.70022,-0.0315z" fill="#ffc705" id="svg_75"/>
    <path stroke="null" d="m88.87348,275.03097c-0.17329,0.17216 -0.32716,0.34442 -0.47249,0.51703c0.58048,0.57765 1.149,1.3311 1.4324,2.1398c0.76635,0.39018 1.5912,0.91013 2.2155,1.508c0.11425,-0.18836 0.25751,-0.37645 0.43522,-0.5543c0.17788,-0.17768 0.36632,-0.32134 0.55467,-0.43559c-0.59792,-0.62422 -1.1179,-1.4491 -1.508,-2.2155c-0.80872,-0.28339 -1.5622,-0.85193 -2.1398,-1.4324c-0.17261,0.14532 -0.34524,0.29957 -0.5174,0.47286l-0.0001,0.0001z" fill="#ffc705" id="svg_76"/>
    <path stroke="null" d="m100.08948,275.03097c-0.17216,-0.17329 -0.34442,-0.32716 -0.51704,-0.47249c-0.57765,0.58048 -1.3311,1.149 -2.1398,1.4324c-0.39018,0.76635 -0.91012,1.5912 -1.508,2.2155c0.18836,0.11425 0.37645,0.25751 0.5543,0.43522c0.17768,0.17788 0.32134,0.36632 0.43559,0.55467c0.62422,-0.59791 1.4491,-1.1179 2.2155,-1.508c0.28339,-0.80872 0.85194,-1.5622 1.4324,-2.1398c-0.14532,-0.17261 -0.29957,-0.34524 -0.47286,-0.5174l-0.00009,-0.0001z" fill="#ffc705" id="svg_77"/>
    <path stroke="null" d="m102.41648,280.64097c0.0008,-0.24427 -0.0122,-0.47488 -0.0315,-0.6997c-0.81892,0.002 -1.7537,-0.12877 -2.5259,-0.50022c-0.81779,0.26599 -1.7687,0.48162 -2.6329,0.50022c0.0524,0.21398 0.0841,0.44828 0.0842,0.6997c-0.00014,0.25142 -0.0318,0.48625 -0.0842,0.70022c0.86418,0.0186 1.8151,0.23421 2.6329,0.50022c0.77224,-0.37146 1.707,-0.5022 2.5259,-0.50022c0.0193,-0.22481 0.0323,-0.45595 0.0315,-0.70022z" fill="#ffc705" id="svg_78"/>
    <circle stroke="null" cx="101.90848" cy="273.22097" r="0.7" fill="#ffc705" id="svg_79"/>
    <circle stroke="null" cx="101.90848" cy="288.07097" r="0.7" fill="#ffc705" id="svg_80"/>
    <circle stroke="null" cx="87.05848" cy="288.07097" r="0.7" fill="#ffc705" id="svg_81"/>
    <circle stroke="null" cx="87.05848" cy="273.22097" r="0.7" fill="#ffc705" id="svg_82"/>
    <g stroke="null" fill="#ffc705" id="svg_83">
     <circle transform="rotate(3.8141 29.4365 24.229)" stroke="null" cx="111.39548" cy="265.24897" r="0.7" id="svg_84"/>
     <circle transform="rotate(3.8141 29.4365 24.229)" stroke="null" cx="109.99848" cy="265.33897" r="0.7" id="svg_85"/>
     <circle stroke="null" cx="94.48348" cy="268.94897" r="0.7" id="svg_86"/>
    </g>
    <g stroke="null" fill="#ffc705" id="svg_87">
     <circle stroke="null" transform="matrix(0.99779 -0.066519 -0.066519 -0.99779 0 0)" cx="75.60546" cy="-296.80325" r="0.7" id="svg_88"/>
     <circle stroke="null" transform="matrix(0.99779 -0.066519 -0.066519 -0.99779 0 0)" cx="74.20846" cy="-296.71325" r="0.7" id="svg_89"/>
     <circle stroke="null" transform="translate(64.3148 58.78) scale(1 -1)" cx="30.16872" cy="-233.54896" r="0.7" id="svg_90"/>
    </g>
    <g stroke="null" fill="#ffc705" id="svg_91">
     <circle transform="rotate(93.814 29.4365 24.229)" stroke="null" cx="280.95648" cy="-68.22803" r="0.7" id="svg_92"/>
     <circle transform="rotate(93.814 29.4365 24.229)" stroke="null" cx="279.55648" cy="-68.13503" r="0.7" id="svg_93"/>
     <circle transform="rotate(90 29.4365 24.229)" stroke="null" cx="285.84648" cy="-52.50503" r="0.7" id="svg_94"/>
    </g>
    <path stroke="null" d="m94.48348,277.69097a2.95,2.95 0 0 0 -2.9502,2.9502a2.95,2.95 0 0 0 2.9502,2.9497a2.95,2.95 0 0 0 2.9502,-2.9497a2.95,2.95 0 0 0 -2.9502,-2.9502zm0,1.7002a1.25,1.25 0 0 1 1.2501,1.2501a1.25,1.25 0 0 1 -1.2501,1.25a1.25,1.25 0 0 1 -1.2501,-1.25a1.25,1.25 0 0 1 1.2501,-1.2501z" fill="#ffc705" id="svg_95"/>
    <path stroke="#ffc705" d="m90.70248,279.85097c-2.8328,-1.6424 -2.4,-3.3259 -4.6013,-4.9671c-1.1897,-0.76787 -3.1544,-0.72834 -3.1254,1.0583c1.819,1.0032 3.3106,2.1701 5.1296,3.1733l1.5457,1.6997l1.5964,-0.65778l-0.545,-0.30642z" fill="#1985c3" stroke-linecap="round" stroke-width="0.1" id="svg_96"/>
    <path stroke="#ffc705" d="m89.09748,279.45097c-2.2252,-1.662 -2.7675,-3.8009 -4.6013,-4.0741c-2.0715,-0.31746 -3.6987,0.57669 -3.6987,2.4982c0,1.3764 1.983,1.9559 2.5128,2.1104l0.22127,-0.55889c-0.16976,-0.061 -0.70522,-0.45139 -0.41039,-1.0316c1.1042,-1.8925 3.5004,0.6688 5.4232,1.5213l1.6304,0.29873l-1.07728,-0.76404z" fill="#1985c3" stroke-linecap="round" stroke-width="0.1" id="svg_97"/>
    <path stroke="null" d="m86.55148,280.64097c-0.0008,0.24427 0.0122,0.47488 0.0315,0.6997c0.81892,-0.002 1.7537,0.12877 2.5259,0.50022c0.81779,-0.26599 1.7687,-0.48162 2.6329,-0.50022c-0.0524,-0.21398 -0.0841,-0.44828 -0.0842,-0.6997c0.00014,-0.25142 0.0318,-0.48625 0.0842,-0.70022c-0.86418,-0.0186 -1.8151,-0.23421 -2.6329,-0.50022c-0.77224,0.37146 -1.707,0.5022 -2.5259,0.50022c-0.0193,0.22481 -0.0323,0.45595 -0.0315,0.70022z" fill="#ffc705" id="svg_98"/>
    <g stroke="null" fill="#ffc705" id="svg_99">
     <circle stroke="null" transform="matrix(0.066519 0.99779 0.99779 -0.066519 0 0)" cx="286.30325" cy="65.10446" r="0.7" id="svg_100"/>
     <circle stroke="null" transform="matrix(0.066519 0.99779 0.99779 -0.066519 0 0)" cx="284.91325" cy="65.19746" r="0.7" id="svg_101"/>
     <circle stroke="null" transform="matrix(0 1 1 0 0 0)" cx="280.63897" cy="82.79248" r="0.7" id="svg_102"/>
    </g>
   </g>
   <path stroke="null" d="m33.00097,0.61696a4.18389,4.17848 0 0 0 -2.04571,2.29326a3.5639,3.5593 0 0 0 -3.34169,3.54831l0.00157,0l-0.00417,1.56584c-0.15778,0.02987 -0.32319,0.06218 -0.50055,0.09895l-0.19682,-0.94763c-0.32014,0.06622 -0.62886,0.13581 -0.92892,0.20786l-0.11336,-0.47031c0.43444,-0.10438 0.85393,-0.19621 1.25741,-0.27536l0,-0.17936c0,-0.63188 0.10175,-0.92023 0.22753,-1.33592l-0.09639,0.01316c-1.25299,0.22898 -2.48056,0.53046 -3.68346,0.90191c-0.52041,0.15845 -0.98843,0.32218 -1.45074,0.48643l0.99112,2.72958c-0.15954,0.05772 -0.29496,0.10862 -0.42272,0.15704l-0.34463,-0.90487c-0.30566,0.11596 -0.59934,0.23346 -0.88424,0.352l-0.18632,-0.44665c0.30163,-0.12615 0.60051,-0.24405 0.89822,-0.35764l-0.5167,-1.35717c-0.94896,0.3671 -1.88306,0.76131 -2.78566,1.21303l0.21459,0.43376c0.73174,-0.35608 1.47958,-0.69931 2.26894,-1.00974l0.17931,0.44962c-0.30881,0.12322 -0.61109,0.24918 -0.90658,0.37808l0.38746,0.88712c-0.1549,0.06833 -0.32201,0.14169 -0.42568,0.18958l-0.40146,-0.8812c-0.29913,0.13705 -0.59652,0.2758 -0.88774,0.42057c-0.16944,0.0838 -0.31949,0.15926 -0.44778,0.22534l1.32957,2.58231c-0.91026,0.47409 -1.80753,0.98484 -2.67874,1.56853l-0.26792,-0.40336c0.24468,-0.16291 0.50091,-0.32533 0.76253,-0.4878l-0.50965,-0.82313c0.12146,-0.07527 0.2538,-0.15517 0.39176,-0.23771l0.49705,0.83065c0.38729,-0.22807 0.77824,-0.45449 1.19065,-0.67199l-1.36943,-2.56136c0.3618,-0.19393 0.61459,-0.31841 0.88745,-0.45552l-0.21432,-0.43376l-0.00029,-0.00021c-0.48873,0.23865 -0.92495,0.47415 -1.35542,0.70937l1.4109,2.53899c-0.14835,0.08219 -0.27409,0.15385 -0.39257,0.22184l-0.48359,-0.83899c-0.2834,0.16277 -0.55465,0.32522 -0.81719,0.48725l-0.25498,-0.41171c0.27791,-0.17221 0.55465,-0.33587 0.83065,-0.49506l-0.72537,-1.25849c-0.87894,0.51237 -1.73902,1.04903 -2.55876,1.63764c-0.44481,0.31285 -0.83837,0.6143 -1.22618,0.91454l1.79539,2.28411c-0.13349,0.10458 -0.24649,0.19515 -0.35272,0.28101l-0.61013,-0.75213c-0.25411,0.20548 -0.49638,0.40867 -0.72995,0.61015l-0.31692,-0.36598c0.24708,-0.21392 0.49446,-0.41932 0.74181,-0.6201l-0.91545,-1.12779c-0.78667,0.64472 -1.55068,1.31046 -2.2669,2.0211l-0.00021,0c-0.38959,0.37912 -0.73065,0.73891 -1.06597,1.0966l2.13431,1.97189c-0.1152,0.12436 -0.21238,0.23134 -0.30372,0.33291l-0.7216,-0.64591c-0.21832,0.24301 -0.42513,0.48188 -0.62386,0.71772l-0.37104,-0.31139c0.21013,-0.25028 0.42171,-0.49222 0.6341,-0.72956l-1.08241,-0.96913c-0.6747,0.7609 -1.32409,1.53888 -1.9187,2.35368c-0.32472,0.43593 -0.60437,0.84503 -0.87884,1.25122l2.42006,1.60995c-0.0941,0.141 -0.17309,0.26203 -0.24718,0.37673l-0.81502,-0.52383c-0.1771,0.27445 -0.34356,0.543 -0.50243,0.80726l-0.41546,-0.24899c0.16788,-0.2803 0.33835,-0.55229 0.51051,-0.82015l-1.22213,-0.78629c-0.54568,0.85789 -1.06373,1.72867 -1.52182,2.62727c-0.25162,0.48172 -0.46294,0.92994 -0.66965,1.37437l2.64431,1.20739c-0.07054,0.15408 -0.12941,0.2862 -0.18444,0.41115l-0.88747,-0.38856c-0.1314,0.29897 -0.25335,0.59034 -0.36835,0.87636l-0.44965,-0.18016c0.12135,-0.30329 0.24672,-0.59892 0.37425,-0.89062l-1.33147,-0.58326c-0.40297,0.93329 -0.77636,1.87494 -1.08644,2.83454l-0.00021,0c-0.1721,0.51541 -0.30977,0.99134 -0.44346,1.46285l2.80237,0.77444c-0.04534,0.16329 -0.08263,0.30302 -0.11713,0.43509l-0.9378,-0.24363c-0.08243,0.31596 -0.15685,0.62309 -0.2251,0.92369l-0.47254,-0.10676c0.07175,-0.31864 0.14883,-0.63032 0.22861,-0.93848l-1.40685,-0.36571c-0.2501,0.98519 -0.46996,1.97411 -0.62414,2.97062l-0.00021,0c-0.08826,0.53611 -0.14888,1.0278 -0.20624,1.51448l2.88953,0.32214c-0.01876,0.1684 -0.03329,0.31214 -0.04632,0.44799l-0.96473,-0.0925c-0.03127,0.32501 -0.05586,0.64003 -0.07566,0.94763l-0.48359,-0.03091c0.02032,-0.32597 0.04689,-0.64581 0.07701,-0.96269l-1.44724,-0.13876c-0.09097,1.0123 -0.15124,2.02335 -0.14567,3.03165l0.48466,0.00029c0.00521,-0.81292 0.02814,-1.63472 0.09908,-2.47898l0.48277,0.03845c-0.02605,0.33112 -0.04689,0.65774 -0.0622,0.97934l0.96796,0.046c-0.0073,0.16896 -0.01573,0.35115 -0.01886,0.4652l-0.96878,-0.03117c-0.00937,0.32853 -0.01669,0.65635 -0.01615,0.98124l0.00021,0l0.48466,0.00029c0.00521,-0.15951 0.00013,-0.31143 0.00538,-0.47301l0.96905,0.01535c0.00521,-0.29662 0.01448,-0.61097 0.0296,-0.94171l0.48385,0.03013c-0.01458,0.3117 -0.02438,0.61825 -0.02907,0.91938l1.45344,0.02284c0.02084,-1.29356 0.13215,-2.60042 0.34438,-3.92219l-2.87019,-0.46036c0.02814,-0.15693 0.05158,-0.30711 0.07889,-0.46628l0.95424,0.16834c0.05107,-0.29218 0.1112,-0.6009 0.17878,-0.92504l0.47281,0.10594c-0.06398,0.30545 -0.12216,0.60638 -0.17447,0.90298l1.43134,0.25249c0.22525,-1.27403 0.54263,-2.54712 0.96151,-3.81865l-2.76142,-0.90756c0.05262,-0.15061 0.09939,-0.29531 0.15159,-0.44826l0.91572,0.31677c0.09697,-0.28038 0.20504,-0.57586 0.3231,-0.88523l0.45018,0.17936c-0.1115,0.29151 -0.21667,0.57964 -0.31529,0.86426l1.3732,0.47543c0.42418,-1.2224 0.93915,-2.42914 1.55412,-3.61869l-2.583,-1.33269c0.07581,-0.1404 0.14503,-0.27564 0.22079,-0.41842l0.85407,0.45741c0.14016,-0.26155 0.2935,-0.53603 0.45908,-0.82286l0.416,0.2482c-0.15631,0.27021 -0.30586,0.53802 -0.44831,0.8035l1.28083,0.68625c0.61236,-1.14004 1.31215,-2.25034 2.10763,-3.32761l-2.33961,-1.72369c0.09712,-0.12665 0.18685,-0.24961 0.28433,-0.37863l0.77087,0.58676c0.17976,-0.23613 0.37454,-0.48324 0.58347,-0.74029l0.37156,0.31085c-0.19711,0.24214 -0.387,0.4832 -0.56974,0.72283l1.15591,0.87985c0.78521,-1.02895 1.65178,-2.01493 2.60806,-2.95313l-2.03695,-2.07134c0.11593,-0.10972 0.22394,-0.21688 0.3406,-0.32887l0.6683,0.70104c0.21492,-0.20475 0.44635,-0.41782 0.69333,-0.63865l0.31771,0.36571c-0.23297,0.20796 -0.45886,0.41586 -0.67718,0.62359l1.00216,1.05115c0.93829,-0.89198 1.95013,-1.72843 3.0429,-2.5038l-1.68311,-2.36689c0.13188,-0.09002 0.25534,-0.1789 0.38827,-0.27107l0.54874,0.79784c0.24463,-0.16821 0.50711,-0.34212 0.78596,-0.52114l0.2558,0.41115c-0.26293,0.16854 -0.51884,0.33813 -0.76737,0.50877l0.82311,1.19636c1.06771,-0.73254 2.19908,-1.39853 3.40096,-1.99152l-1.28731,-2.60327c0.14448,-0.06806 0.28044,-0.13624 0.42623,-0.20626l0.41575,0.87449c0.26824,-0.12745 0.55467,-0.25772 0.85839,-0.39044l0.18767,0.44639c-0.28636,0.12488 -0.56611,0.25207 -0.83847,0.38131l0.62333,1.31119c1.17035,-0.55466 2.39318,-1.03355 3.67368,-1.42923l-0.85865,-2.77372c0.15334,-0.04438 0.29842,-0.09027 0.45342,-0.13634l0.27195,0.92906c0.285,-0.08348 0.58864,-0.16673 0.90953,-0.24981l0.11416,0.47033c-0.30251,0.07808 -0.59856,0.15931 -0.888,0.24389l0.40792,1.39347c1.25221,-0.36581 2.51518,-0.63724 3.78836,-0.82178l0.00208,-2.79529a2.11027,2.10755 0 0 1 2.11007,-2.10775l0,-0.00417a3.69934,3.69456 0 0 1 1.82393,-3.17933a3.69934,3.69456 0 0 1 1.82393,3.17933l0,0.00417a2.11027,2.10755 0 0 1 2.11007,2.10775l0.00208,2.79529c1.27315,0.18452 2.53616,0.45595 3.78836,0.82178l0.40792,-1.39347c-0.28945,-0.08459 -0.58549,-0.16582 -0.888,-0.24389l0.11416,-0.47033c0.32091,0.08308 0.62453,0.16633 0.90953,0.24981l0.27195,-0.92906c0.15501,0.04605 0.30007,0.09194 0.45342,0.13634l-0.85865,2.77372c1.28055,0.39567 2.50337,0.87457 3.67368,1.42923l0.62333,-1.31119c-0.27236,-0.12924 -0.5521,-0.25642 -0.83845,-0.38131l0.18767,-0.44639c0.30372,0.13272 0.59014,0.26299 0.85839,0.39044l0.41572,-0.87449c0.14579,0.07 0.28175,0.13819 0.42623,0.20626l-1.28731,2.60327c1.20183,0.59298 2.3333,1.25897 3.40096,1.99152l0.82311,-1.19636c-0.2485,-0.1707 -0.50444,-0.34029 -0.76735,-0.50883l0.2558,-0.41115c0.27885,0.17903 0.54132,0.35292 0.78594,0.52114l0.54874,-0.79784c0.13292,0.09216 0.25638,0.18104 0.38827,0.27107l-1.68311,2.36689c1.09272,0.77534 2.10458,1.61181 3.0429,2.5038l1.00216,-1.05115c-0.21832,-0.20775 -0.44421,-0.41563 -0.67718,-0.62359l0.31771,-0.36571c0.24697,0.22082 0.4784,0.4339 0.69333,0.63865l0.6683,-0.70104c0.11666,0.112 0.22467,0.21915 0.3406,0.32887l-2.03695,2.07134c0.95621,0.93819 1.82279,1.92417 2.60806,2.95313l1.15591,-0.87985c-0.18273,-0.23961 -0.37263,-0.48068 -0.56974,-0.72283l0.37156,-0.31085c0.20893,0.25705 0.40373,0.50418 0.58347,0.74029l0.77087,-0.58676c0.09748,0.12901 0.18721,0.25197 0.28433,0.37863l-2.33961,1.72369c0.79557,1.07741 1.49534,2.18769 2.10763,3.32761l1.28084,-0.68625c-0.14246,-0.26545 -0.29201,-0.53329 -0.44831,-0.8035l0.416,-0.2482c0.16559,0.28683 0.31891,0.56131 0.45908,0.82286l0.85407,-0.45741c0.07577,0.14277 0.14498,0.27803 0.22079,0.41842l-2.583,1.33269c0.61497,1.18953 1.12994,2.39619 1.55414,3.61869l1.3732,-0.47543c-0.09863,-0.28461 -0.2038,-0.57275 -0.31529,-0.86426l0.4502,-0.17936c0.11807,0.30937 0.22614,0.60484 0.3231,0.88523l0.91574,-0.31677c0.0522,0.15295 0.09896,0.29766 0.15159,0.44826l-2.76142,0.90756c0.41888,1.27169 0.73626,2.54468 0.96151,3.81865l1.4312,-0.25259c-0.05231,-0.29662 -0.11049,-0.59754 -0.17447,-0.90298l0.47281,-0.10594c0.06758,0.32414 0.12772,0.63286 0.17878,0.92504l0.95424,-0.16834c0.0273,0.15919 0.05075,0.30935 0.07889,0.46628l-2.87019,0.46036c0.21223,1.32183 0.32354,2.62869 0.34438,3.92219l1.45342,-0.02284c-0.00469,-0.30115 -0.01448,-0.60767 -0.02907,-0.91938l0.48385,-0.03013c0.01511,0.33073 0.02438,0.6451 0.0296,0.94171l0.96905,-0.01535c0.00521,0.16158 0.00013,0.3135 0.00538,0.47301l0.48466,-0.00029l0.00021,0c0.00061,-0.32489 -0.00678,-0.6527 -0.01615,-0.98124l-0.96878,0.03117c-0.00311,-0.11406 -0.01157,-0.29625 -0.01886,-0.4652l0.96796,-0.046c-0.01531,-0.32164 -0.03615,-0.64824 -0.0622,-0.97934l0.48277,-0.03845c0.07095,0.84432 0.09388,1.66614 0.09908,2.47898l-0.00102,0c-0.00261,0.3051 -0.00208,0.5867 -0.01564,0.99657l-2.90603,-0.09143c-0.01256,0.46557 -0.04231,0.91606 -0.07566,1.3639l0.96581,0.07691c-0.01304,0.16012 -0.02657,0.31399 -0.04012,0.45607l-0.96446,-0.0917c-0.02991,0.30624 -0.06212,0.60773 -0.10016,0.89896l-0.4809,-0.06131c0.13792,-1.03866 0.19893,-2.06829 0.22133,-3.09328l2.90685,0.04626c0.00526,-0.1441 0.00526,-0.31187 0.00542,-0.5007l-0.48438,0l-0.00021,-0.00029l-2.90787,0.00104c0.00021,1.33871 -0.09633,2.6472 -0.28083,3.92767l1.43862,0.20679c0.04304,-0.2981 0.08168,-0.60228 0.11659,-0.9124l0.48251,0.04678c-0.03715,0.32902 -0.07682,0.64087 -0.11955,0.93446l0.95908,0.13795c-0.02365,0.15984 -0.04867,0.30968 -0.07108,0.46762l-2.87059,-0.45822c-0.2118,1.32191 -0.51436,2.59858 -0.8993,3.8337l1.38774,0.43134c0.08972,-0.28755 0.17609,-0.58182 0.25957,-0.88254l0.46904,0.12235c-0.08879,0.31899 -0.17745,0.62092 -0.26602,0.90406l0.92542,0.28772c-0.04882,0.15404 -0.09742,0.29797 -0.14433,0.45041l-2.76204,-0.90596c-0.41849,1.27181 -0.91947,2.48447 -1.49518,3.6433l1.30185,0.6451c0.13416,-0.26974 0.26635,-0.54663 0.39635,-0.83039l0.44373,0.19495c-0.13818,0.30097 -0.27378,0.58496 -0.40603,0.85055l0.86835,0.43026c-0.07264,0.1444 -0.14313,0.2791 -0.21378,0.42218l-2.58382,-1.33082c-0.61467,1.18969 -1.30132,2.30791 -2.05324,3.36138l1.18337,0.84276c0.17517,-0.24517 0.34928,-0.49785 0.52263,-0.7575l0.40739,0.26272c-0.18414,0.27534 -0.36287,0.53442 -0.53554,0.77579l0.78917,0.56175c-0.09452,0.131 -0.18555,0.25292 -0.27787,0.38292l-2.34064,-1.72209c-0.79524,1.07764 -1.65038,2.07338 -2.55978,2.99483l1.03501,1.01915c0.2118,-0.2144 0.42397,-0.43628 0.63624,-0.66528l0.36053,0.32351c-0.2254,0.2428 -0.44287,0.47035 -0.6516,0.68141l0.69009,0.67952c-0.11416,0.11452 -0.22335,0.22038 -0.33522,0.33425l-2.03838,-2.07032c-0.95595,0.93846 -1.95785,1.78658 -3.00155,2.55281l0.86052,1.16974c0.24307,-0.17826 0.48764,-0.36379 0.73345,-0.55637l0.3048,0.37648c-0.26099,0.20415 -0.51165,0.3944 -0.75122,0.56982l0.57379,0.78011c-0.13084,0.09504 -0.25521,0.18219 -0.38368,0.27697l-1.68499,-2.36589c-1.09257,0.77565 -2.21598,1.45476 -3.36817,2.04632l0.66453,1.29102c0.26828,-0.13762 0.53911,-0.28241 0.81233,-0.43376l0.24125,0.42003c-0.29001,0.16034 -0.56767,0.3086 -0.832,0.44397l0.4432,0.86076c-0.14422,0.07318 -0.28111,0.13969 -0.42299,0.21298l-1.28891,-2.60245c-1.20162,0.59331 -1.90371,1.08646 -3.13496,1.48867l-0.06328,1.37976c0.28667,-0.09352 0.57701,-0.19356 0.87077,-0.29983l0.17178,0.45284c-0.31179,0.11251 -0.60938,0.21488 -0.89177,0.30683l0.3013,0.92019c-0.15408,0.04949 -0.29954,0.09338 -0.45126,0.14333l0.14351,0.46251c0.31102,-0.0952 0.62235,-0.19925 0.93377,-0.30549l-0.31611,-0.91483c0.10828,-0.03658 0.27999,-0.09852 0.43943,-0.15543l0.33038,0.90998c0.30315,-0.1096 0.60923,-0.22611 0.91816,-0.34904l0.17959,0.44934c-0.37639,0.15195 -0.75116,0.29206 -1.12467,0.42352l1.36431,0.00021c0.13974,-0.05578 0.27932,-0.11223 0.41869,-0.16941l-0.5606,-1.33969c-0.29423,0.12227 -0.59249,0.2423 -0.89822,0.35819l-0.17233,-0.45203c0.2884,-0.10986 0.58232,-0.22654 0.88395,-0.35254l-0.37373,-0.89331c0.12609,-0.05271 0.25918,-0.10888 0.41466,-0.17666l1.16263,2.66144c0.44855,-0.19866 0.90108,-0.40176 1.38774,-0.64457c0.90759,-0.44177 1.78837,-0.94367 2.65673,-1.4736l-0.76576,-1.23428c-0.27119,0.16722 -0.54656,0.33289 -0.83012,0.49559l-0.2418,-0.41923c0.26734,-0.15403 0.53905,-0.31574 0.81692,-0.4878l-0.51051,-0.82286c0.11614,-0.07196 0.23871,-0.14863 0.38152,-0.24013l1.56948,2.4444c0.41141,-0.26701 0.82614,-0.53902 1.26818,-0.85565c0.8262,-0.57956 1.61637,-1.21437 2.38992,-1.87481l-0.95155,-1.09793c-0.2413,0.20794 -0.48699,0.41519 -0.74125,0.62063l-0.30533,-0.37566c0.23958,-0.19432 0.48255,-0.3969 0.72969,-0.61068l-0.63437,-0.73196c0.10327,-0.08939 0.21217,-0.1845 0.33873,-0.29741l1.93674,2.16572c0.36399,-0.32864 0.73019,-0.66278 1.11659,-1.04525c0.72398,-0.70277 1.40381,-1.45437 2.06302,-2.22879l-1.11337,-0.93364c-0.20535,0.24344 -0.41502,0.48678 -0.63355,0.72981l-0.36107,-0.32295c0.20581,-0.22971 0.4134,-0.46813 0.62359,-0.71825l-0.74207,-0.62224c0.0878,-0.10457 0.18022,-0.21596 0.28728,-0.34743l2.25529,1.8326c0.30737,-0.38198 0.61632,-0.7695 0.93727,-1.20818l-0.00021,-0.00021c0.60363,-0.80828 1.15589,-1.65768 1.68419,-2.52637l-1.24719,-0.74621c-0.16418,0.27282 -0.33299,0.5462 -0.51024,0.8207l-0.40739,-0.26165c0.16684,-0.2593 0.33397,-0.52737 0.50189,-0.80753l-0.83144,-0.49749c0.07013,-0.11713 0.14404,-0.24159 0.22885,-0.38829l2.51722,1.45344c0.24301,-0.42574 0.48654,-0.85745 0.73399,-1.34132l-0.00021,0c0.46801,-0.89345 0.87869,-1.81966 1.26281,-2.76091l-1.3495,-0.53969c-0.1189,0.29531 -0.24217,0.59186 -0.37373,0.89089l-0.44399,-0.19388c0.12365,-0.28241 0.24641,-0.57375 0.36779,-0.87691l-0.89957,-0.35979c0.0507,-0.12674 0.10365,-0.26122 0.16424,-0.4195l2.7158,1.03744c0.17256,-0.45876 0.34472,-0.92341 0.51239,-1.44026c0.32064,-0.95611 0.5795,-1.9354 0.80965,-2.92547l-1.41816,-0.31972c-0.07065,0.31039 -0.14547,0.62272 -0.22805,0.93875l-0.46904,-0.12155c0.07733,-0.29839 0.1527,-0.60517 0.22455,-0.92369l-0.94562,-0.21323c0.02996,-0.13316 0.06121,-0.27434 0.09612,-0.4402l2.84574,0.59536c0.09769,-0.48024 0.19388,-0.96609 0.27761,-1.50292l0.00021,0c0.16516,-0.99474 0.26575,-2.00241 0.33631,-3.0164l-1.451,-0.09197c-0.02058,0.31762 -0.04522,0.63786 -0.07647,0.96295l-0.48224,-0.04574c0.02928,-0.30685 0.05481,-0.62177 0.07512,-0.94761l-0.96717,-0.06131c0.00833,-0.13622 0.01725,-0.28036 0.02506,-0.44962l2.9042,0.13822c0.02032,-0.48964 0.04101,-0.98461 0.03579,-1.52792l-0.48385,0l0.48438,-0.00029c0.00558,-1.0083 -0.05469,-2.01935 -0.14567,-3.03165l-1.44724,0.13876c0.03011,0.31687 0.05668,0.6367 0.07701,0.96269l-0.48359,0.03091c-0.0198,-0.3076 -0.04439,-0.62263 -0.07566,-0.94763l-0.96473,0.0925c-0.01304,-0.13585 -0.02756,-0.27961 -0.04633,-0.44799l2.88974,-0.32214c-0.05736,-0.48668 -0.11798,-0.97836 -0.20627,-1.51448l-0.00021,0c-0.15418,-0.99649 -0.37403,-1.98541 -0.62414,-2.97062l-1.40687,0.36571c0.07977,0.30816 0.15685,0.61984 0.22861,0.93848l-0.47254,0.10676c-0.06826,-0.3006 -0.14266,-0.60773 -0.2251,-0.92369l-0.93782,0.24363c-0.03449,-0.13207 -0.07179,-0.2718 -0.11713,-0.43509l2.80237,-0.77444c-0.13369,-0.47151 -0.27136,-0.94743 -0.44346,-1.46283l-0.00021,0c-0.31008,-0.95959 -0.68348,-1.90125 -1.08644,-2.83454l-1.33147,0.58326c0.12755,0.2917 0.2529,0.58731 0.37427,0.89062l-0.44965,0.18016c-0.11499,-0.28601 -0.23694,-0.57738 -0.36835,-0.87636l-0.88745,0.38856c-0.05502,-0.12495 -0.11389,-0.25707 -0.18444,-0.41115l2.64431,-1.20739c-0.20669,-0.44443 -0.41802,-0.89265 -0.66965,-1.37437c-0.4581,-0.89853 -0.97614,-1.76932 -1.52182,-2.62727l-1.22215,0.78627c0.17215,0.26787 0.34262,0.53985 0.51051,0.82018l-0.41546,0.24899c-0.15887,-0.26423 -0.32533,-0.53279 -0.50243,-0.80726l-0.81502,0.52383c-0.07409,-0.11469 -0.15308,-0.23573 -0.24718,-0.37673l2.42006,-1.60995c-0.27449,-0.40619 -0.55414,-0.81528 -0.87886,-1.25122c-0.59461,-0.81486 -1.244,-1.59284 -1.9187,-2.35368l-1.08241,0.96913c0.2124,0.23732 0.42397,0.47928 0.6341,0.72954l-0.37104,0.31141c-0.19872,-0.23584 -0.40555,-0.47468 -0.62386,-0.71772l-0.7216,0.64591c-0.09134,-0.10156 -0.18852,-0.20854 -0.30372,-0.33291l2.13431,-1.97189c-0.33533,-0.35768 -0.67641,-0.7175 -1.06597,-1.0966l-0.00021,0c-0.71616,-0.71064 -1.48018,-1.37638 -2.2669,-2.0211l-0.91545,1.12779c0.24734,0.20078 0.49473,0.40617 0.74181,0.6201l-0.31692,0.36598c-0.23358,-0.20147 -0.47585,-0.40467 -0.72995,-0.61015l-0.61013,0.75213c-0.10623,-0.08585 -0.21924,-0.17642 -0.35272,-0.28101l1.79537,-2.28411c-0.38782,-0.30026 -0.78137,-0.60171 -1.22618,-0.91456c-0.81969,-0.58861 -1.67977,-1.12525 -2.55876,-1.63762l-0.72537,1.25849c0.276,0.15919 0.55273,0.32285 0.83065,0.49506l-0.25498,0.41171c-0.26254,-0.16204 -0.53379,-0.3245 -0.81719,-0.48725l-0.48359,0.83899c-0.11849,-0.06799 -0.24422,-0.13966 -0.39257,-0.22184l1.4109,-2.53899c-0.43048,-0.23523 -0.8667,-0.47074 -1.35542,-0.70937l-0.00029,0.00021l-0.21432,0.43376c0.27286,0.13713 0.52566,0.26161 0.88745,0.45552l-1.36943,2.56136c0.4124,0.21753 0.80336,0.44393 1.19065,0.67199l0.49705,-0.83065c0.13797,0.08254 0.27032,0.16245 0.39176,0.23771l-0.5097,0.82313c0.26162,0.16245 0.51783,0.32489 0.76251,0.4878l-0.26792,0.40336c-0.87104,-0.58355 -1.7683,-1.09429 -2.67853,-1.56838l1.32959,-2.58231c-0.12828,-0.06608 -0.27832,-0.14155 -0.44778,-0.22534c-0.29122,-0.14477 -0.5886,-0.28351 -0.88774,-0.42057l-0.40146,0.8812c-0.10369,-0.04787 -0.27078,-0.12125 -0.4257,-0.18958l0.38746,-0.88712c-0.29547,-0.12891 -0.59776,-0.25486 -0.90658,-0.37808l0.17933,-0.44962c0.78942,0.31043 1.53726,0.65366 2.26894,1.00974l0.21459,-0.43376c-0.90264,-0.45174 -1.83674,-0.84593 -2.78566,-1.21303l-0.5167,1.35717c0.29771,0.11359 0.59661,0.2315 0.89822,0.35764l-0.18632,0.44665c-0.2849,-0.11854 -0.57858,-0.23604 -0.88424,-0.352l-0.34463,0.90487c-0.12776,-0.04845 -0.26319,-0.09932 -0.42272,-0.15705l0.99112,-2.72958c-0.46232,-0.16426 -0.93033,-0.32802 -1.45074,-0.48645c-1.20276,-0.37145 -2.43045,-0.67293 -3.68346,-0.90191l-0.09639,-0.01316c0.12577,0.41569 0.22753,0.70405 0.22753,1.33592l0,0.17936c0.4035,0.07915 0.82297,0.17098 1.25741,0.27536l-0.11336,0.47031c-0.30007,-0.07205 -0.60881,-0.14164 -0.92892,-0.20786l-0.19682,0.94763c-0.17733,-0.03679 -0.34275,-0.06911 -0.50051,-0.09897l-0.00417,-1.56584l0.00157,0a3.5639,3.5593 0 0 0 -3.3419,-3.54811a4.18389,4.17848 0 0 0 -2.04571,-2.29326l0.00044,0.00026l0.00011,0.00004zm-30.44938,35.8513l-0.48438,0c0.00014,0.18883 0.00013,0.3566 0.00536,0.5007l2.90685,-0.04626c0.02241,1.02501 0.08341,2.05446 0.22133,3.09328l-0.48088,0.06131c-0.03804,-0.29122 -0.07026,-0.59272 -0.10016,-0.89896l-0.96446,0.0917c-0.01354,-0.14208 -0.02709,-0.29595 -0.04012,-0.45607l0.96581,-0.07691c-0.03335,-0.44782 -0.0631,-0.89831 -0.07566,-1.3639l-2.90603,0.09143c-0.01354,-0.40988 -0.01304,-0.69148 -0.01564,-0.99657l-0.48487,0c-0.00521,0.54331 0.01548,1.0383 0.03579,1.52792l2.9042,-0.13822c0.00782,0.16925 0.01673,0.31339 0.02506,0.44962l-0.96715,0.0613c0.02032,0.32587 0.04585,0.64076 0.07512,0.94763l-0.48224,0.04574c-0.03127,-0.3251 -0.05589,-0.64532 -0.07647,-0.96295l-1.451,0.09197c0.07054,1.01391 0.17112,2.02156 0.33629,3.0164l0.00021,0c0.08373,0.53685 0.17991,1.02267 0.27761,1.50292l2.84574,-0.59534c0.03491,0.16586 0.06616,0.30703 0.09612,0.4402l-0.94562,0.21323c0.07185,0.31852 0.14723,0.6253 0.22455,0.92369l-0.46904,0.12155c-0.08258,-0.31604 -0.1574,-0.62838 -0.22805,-0.93875l-1.41816,0.31972c0.23015,0.99003 0.489,1.96931 0.80965,2.92547c0.16767,0.51685 0.33981,0.98148 0.51239,1.44026l2.7158,-1.03744c0.0606,0.15828 0.11354,0.29275 0.16424,0.4195l-0.89957,0.35979c0.12141,0.30316 0.24415,0.59449 0.36779,0.87691l-0.44402,0.19387c-0.13157,-0.29901 -0.25482,-0.59557 -0.37373,-0.89089l-1.3495,0.53969c0.38411,0.94121 0.7948,1.8674 1.26281,2.76091l-0.00021,0c0.24745,0.48387 0.49098,0.91556 0.73399,1.3413l2.51722,-1.45344c0.08483,0.14671 0.15873,0.27117 0.22887,0.38829l-0.83144,0.49747c0.16793,0.28016 0.33505,0.54819 0.50189,0.80753l-0.40737,0.26165c-0.17725,-0.27449 -0.34607,-0.54789 -0.51024,-0.8207l-1.24719,0.74621c0.52827,0.86869 1.08056,1.71809 1.68419,2.52637l-0.00021,0.00021c0.32095,0.4387 0.62993,0.8262 0.93727,1.20818l2.25529,-1.8326c0.10707,0.13148 0.1995,0.24286 0.2873,0.34743l-0.74207,0.62226c0.21019,0.25011 0.41778,0.48853 0.62359,0.71825l-0.36107,0.32295c-0.21852,-0.24303 -0.42821,-0.48638 -0.63355,-0.72981l-1.11337,0.93364c0.65922,0.77431 1.33904,1.52594 2.06302,2.22879c0.38641,0.38248 0.7526,0.7166 1.11659,1.04523l1.93674,-2.16572c0.12656,0.11291 0.23545,0.20801 0.33873,0.29741l-0.63437,0.73196c0.24712,0.21379 0.4901,0.41636 0.72969,0.61068l-0.30533,0.37566c-0.25427,-0.20544 -0.49996,-0.41269 -0.74125,-0.62063l-0.95155,1.09793c0.77354,0.66043 1.56369,1.29525 2.38992,1.87483c0.44206,0.31664 0.85678,0.58865 1.26818,0.85565l1.56948,-2.4444c0.14282,0.0915 0.26539,0.16817 0.38152,0.24013l-0.51051,0.82286c0.27787,0.17204 0.54958,0.33376 0.81692,0.4878l-0.24178,0.41923c-0.28356,-0.16272 -0.55891,-0.32839 -0.83012,-0.49559l-0.76576,1.23428c0.86837,0.52993 1.74914,1.03185 2.65673,1.47362c0.48664,0.24282 0.93917,0.44592 1.38774,0.64457l1.16263,-2.66144c0.15548,0.0678 0.28855,0.12397 0.41466,0.17667l-0.37373,0.89331c0.30163,0.12599 0.59557,0.24267 0.88395,0.35254l-0.17233,0.45203c-0.30574,-0.11588 -0.604,-0.23592 -0.89822,-0.35819l-0.5606,1.33969c0.13937,0.05718 0.27895,0.11364 0.41869,0.16941l1.36431,-0.00021c-0.37354,-0.13148 -0.74828,-0.27157 -1.12467,-0.42352l0.17959,-0.44934c0.30891,0.12294 0.61501,0.23946 0.91814,0.34904l0.33038,-0.90998c0.15943,0.05691 0.33115,0.11887 0.43943,0.15543l-0.31611,0.91483c0.31142,0.10623 0.62275,0.21029 0.93377,0.30549l0.14351,-0.46251c-0.15173,-0.04996 -0.29721,-0.09386 -0.45126,-0.14333l0.30103,-0.92019c-0.2824,-0.09193 -0.57998,-0.19432 -0.89177,-0.30683l0.17178,-0.45284c0.29376,0.10626 0.58409,0.20632 0.87077,0.29983l-0.06328,-1.37976c-1.23121,-0.40219 -1.9333,-0.89533 -3.13496,-1.48867l-1.28891,2.60245c-0.14187,-0.07328 -0.27877,-0.1398 -0.42299,-0.21298l0.4432,-0.86076c-0.26433,-0.13538 -0.54197,-0.28362 -0.832,-0.44397l0.24125,-0.42003c0.27323,0.15133 0.54406,0.29612 0.81233,0.43376l0.66451,-1.29102c-1.15201,-0.59161 -2.27546,-1.27073 -3.36817,-2.04632l-1.68501,2.36589c-0.12849,-0.09478 -0.25286,-0.18193 -0.38368,-0.27697l0.57379,-0.78011c-0.23958,-0.17542 -0.49023,-0.36567 -0.75122,-0.56982l0.3048,-0.37648c0.24584,0.19259 0.49039,0.3781 0.73345,0.55637l0.86052,-1.16974c-1.0438,-0.76613 -2.04571,-1.61428 -3.00155,-2.55281l-2.03817,2.07032c-0.11186,-0.11388 -0.22106,-0.21973 -0.33522,-0.33425l0.69009,-0.67954c-0.20873,-0.21104 -0.42619,-0.43861 -0.6516,-0.68141l0.36053,-0.32351c0.21227,0.229 0.42443,0.45086 0.63624,0.66528l1.03501,-1.01915c-0.90943,-0.92137 -1.76454,-1.91715 -2.55978,-2.99483l-2.34064,1.72209c-0.09232,-0.13 -0.18335,-0.25192 -0.27787,-0.38292l0.78917,-0.56175c-0.17267,-0.24136 -0.3514,-0.50045 -0.53554,-0.77579l0.40739,-0.26272c0.17335,0.25965 0.34745,0.51235 0.52263,0.7575l1.18337,-0.84276c-0.75201,-1.05339 -1.43866,-2.17162 -2.05324,-3.36138l-2.58382,1.33082c-0.07065,-0.14307 -0.14115,-0.2778 -0.21378,-0.42218l0.86835,-0.43026c-0.13224,-0.26559 -0.26785,-0.5496 -0.40603,-0.85055l0.44373,-0.19495c0.13,0.28376 0.26218,0.56062 0.39635,0.83039l1.30185,-0.6451c-0.57568,-1.15892 -1.07666,-2.37158 -1.49518,-3.6433l-2.76204,0.90596c-0.04689,-0.15244 -0.09551,-0.29637 -0.14433,-0.45041l0.92546,-0.28772c-0.08858,-0.28315 -0.17723,-0.58507 -0.26602,-0.90406l0.46904,-0.12235c0.08347,0.30072 0.16983,0.595 0.25957,0.88254l1.38774,-0.43134c-0.38494,-1.23528 -0.68751,-2.51193 -0.8993,-3.8337l-2.87059,0.45822c-0.02241,-0.15795 -0.04742,-0.3078 -0.07108,-0.46762l0.95908,-0.13795c-0.04273,-0.29358 -0.0824,-0.60544 -0.11955,-0.93446l0.48251,-0.04678c0.03491,0.31012 0.07355,0.6143 0.11659,0.9124l1.43862,-0.20679c-0.1845,-1.28052 -0.28104,-2.58882 -0.28083,-3.92767l-2.90787,-0.00104l-0.00039,-0.00014l0.00004,-0.00003zm28.25377,-33.05846a4.18389,4.17848 0 0 0 -0.08831,0.50096a2.59481,2.59146 0 0 0 -2.1339,2.54814l-0.00261,2.37951c-1.02145,0.1637 -2.02227,0.37989 -3.00217,0.64941l-0.12843,-0.46683c0.2834,-0.07844 0.57762,-0.1529 0.87696,-0.22561l-0.22698,-0.9409c0.1389,-0.03362 0.28981,-0.06843 0.44669,-0.10379l0.21217,0.94413c0.44888,-0.10083 0.89605,-0.18925 1.34142,-0.26701l-0.00157,-1.96893a3.07936,3.07538 0 0 1 2.70663,-3.04914l0.00007,0.00006l0.00001,-0.00001zm4.39306,0a3.07936,3.07538 0 0 1 2.70663,3.04914l-0.00157,1.96893c0.44538,0.07777 0.89254,0.1662 1.34142,0.26701l0.21217,-0.94413c0.15689,0.03539 0.30777,0.07019 0.44669,0.10379l-0.22698,0.9409c0.29934,0.07272 0.59365,0.14717 0.87723,0.22561l-0.12843,0.46683c-0.97992,-0.26953 -1.98074,-0.48572 -3.00217,-0.64941l-0.00261,-2.37951a2.59481,2.59146 0 0 0 -2.1339,-2.54814a4.18389,4.17848 0 0 0 -0.08831,-0.50096l-0.00019,-0.00006l0,0.00001zm-8.49446,2.32153c-0.02694,0.1729 -0.04554,0.34393 -0.05896,0.51387c-0.4656,0.09758 -0.92177,0.20453 -1.37024,0.32001l0.24207,0.9374c-0.16375,0.04303 -0.34262,0.08768 -0.45261,0.11858l-0.25659,-0.93337c-0.31707,0.08807 -0.63272,0.17814 -0.9432,0.27509c-0.18059,0.05598 -0.34106,0.10667 -0.47819,0.15166l0.90415,2.75968c-0.97387,0.32434 -1.94068,0.68718 -2.8934,1.1259l-0.20086,-0.44073c0.26734,-0.12222 0.54631,-0.24206 0.83038,-0.36114l-0.37319,-0.89331c0.13182,-0.05513 0.27528,-0.1132 0.42462,-0.17291l0.35918,0.89869c0.41855,-0.16401 0.84057,-0.32576 1.28219,-0.47543l-0.9467,-2.74524c0.38796,-0.13433 0.65742,-0.21723 0.94858,-0.30951c0.99421,-0.30589 2.01675,-0.57163 2.98281,-0.76934l-0.00004,0.00007l0.00001,0.00002zm12.59566,0c0.96605,0.19772 1.98858,0.46345 2.98281,0.76934c0.29116,0.09231 0.56062,0.17518 0.94858,0.30951l-0.9467,2.74524c0.44162,0.14967 0.86365,0.31143 1.28219,0.47543l0.35918,-0.89869c0.14933,0.05971 0.29278,0.11778 0.42462,0.17291l-0.37319,0.89331c0.28407,0.11908 0.56304,0.23892 0.83038,0.36114l-0.20086,0.44073c-0.95271,-0.43872 -1.91953,-0.80157 -2.8934,-1.1259l0.90415,-2.75968c-0.13714,-0.04501 -0.29761,-0.09568 -0.47819,-0.15166c-0.31048,-0.09696 -0.62613,-0.18702 -0.9432,-0.27509l-0.25659,0.93337c-0.10999,-0.03091 -0.28885,-0.07555 -0.45261,-0.11858l0.24207,-0.9374c-0.44845,-0.11546 -0.90464,-0.22242 -1.37022,-0.32001c-0.01344,-0.16995 -0.03204,-0.34098 -0.05897,-0.51387l-0.00006,-0.00007l0.00002,-0.00002zm-22.41033,3.80847l0.24826,0.41547c-0.28543,0.17046 -0.56394,0.34262 -0.83523,0.51656l0.52316,0.81478c-0.14209,0.09193 -0.2956,0.19072 -0.39042,0.25438l-0.53581,-0.80671c-0.27366,0.18257 -0.54554,0.36661 -0.81018,0.55556c-0.15402,0.10951 -0.29011,0.2076 -0.40632,0.2931l1.7216,2.34005c-0.8237,0.6119 -1.62877,1.25791 -2.39664,1.97189l-0.32848,-0.35604c0.21576,-0.1995 0.44324,-0.40036 0.67583,-0.60208l-0.63383,-0.73224c0.10796,-0.0935 0.22632,-0.19358 0.34949,-0.29686l0.62198,0.7419c0.34628,-0.28636 0.6965,-0.57171 1.06921,-0.85162l-1.75769,-2.3128c0.32654,-0.24865 0.55651,-0.41119 0.80427,-0.58971c0.6661,-0.46718 1.3505,-0.92435 2.08074,-1.35555l0.00006,-0.0001l0.00001,0.00003zm32.22339,0c0.7303,0.43121 1.41471,0.88838 2.08074,1.35555c0.24775,0.17852 0.47772,0.34106 0.80427,0.58971l-1.75769,2.3128c0.37269,0.27991 0.72293,0.56526 1.06921,0.85162l0.62198,-0.7419c0.12318,0.1033 0.24154,0.20337 0.34949,0.29686l-0.63381,0.73224c0.2326,0.20174 0.46006,0.40257 0.67583,0.60208l-0.32848,0.35604c-0.76785,-0.71398 -1.57292,-1.35999 -2.39664,-1.97189l1.7216,-2.34005c-0.11619,-0.0855 -0.25229,-0.18359 -0.40632,-0.2931c-0.26464,-0.18895 -0.53654,-0.373 -0.81018,-0.55556l-0.53581,0.80671c-0.09483,-0.06366 -0.24832,-0.16245 -0.39042,-0.25438l0.52316,-0.81478c-0.2713,-0.17395 -0.5498,-0.34612 -0.83523,-0.51656l0.2483,-0.41536l0.00001,-0.00003zm-36.2867,2.88397l0.31099,0.37082c-0.25484,0.2134 -0.50279,0.42753 -0.74315,0.64215l0.64567,0.72175c-0.12577,0.11322 -0.2616,0.2349 -0.34519,0.31272l-0.65671,-0.7118c-0.2413,0.22349 -0.48053,0.4482 -0.7119,0.67657c-0.13474,0.13247 -0.25369,0.25082 -0.35488,0.35361l2.07056,2.03859c-0.71642,0.73431 -1.40898,1.49951 -2.05407,2.32581l-0.38073,-0.29983c0.18148,-0.23107 0.37421,-0.46536 0.5719,-0.7013l-0.74179,-0.62278c0.09181,-0.10937 0.19281,-0.22678 0.29806,-0.34824l0.73156,0.63407c0.29657,-0.33746 0.59744,-0.67447 0.92112,-1.00974l-2.10212,-2.00604c0.28315,-0.29708 0.48448,-0.49399 0.70086,-0.70937c0.58378,-0.5665 1.187,-1.1258 1.83981,-1.66694l0,-0.00004l-0.00002,0.00001zm40.35001,0c0.65282,0.54114 1.25604,1.10044 1.83981,1.66694c0.21639,0.2154 0.41773,0.4123 0.70086,0.70937l-2.10212,2.00604c0.32368,0.33526 0.62455,0.67228 0.92112,1.00974l0.73156,-0.63407c0.10525,0.12145 0.20627,0.23886 0.29806,0.34824l-0.74179,0.62278c0.19768,0.23594 0.3904,0.47022 0.5719,0.7013l-0.38073,0.29983c-0.64514,-0.82626 -1.33771,-1.59147 -2.05407,-2.32581l2.07056,-2.03859c-0.10118,-0.10278 -0.22013,-0.22115 -0.35488,-0.35361c-0.23139,-0.22837 -0.47061,-0.45308 -0.7119,-0.67657l-0.65671,0.7118c-0.08357,-0.07784 -0.21939,-0.19951 -0.34519,-0.31272l0.64567,-0.72175c-0.24036,-0.21462 -0.48831,-0.42875 -0.74315,-0.64215l0.31099,-0.37077l-0.00002,-0.00001zm-43.90617,3.48933l0.36593,0.31704c-0.21785,0.25097 -0.42864,0.50145 -0.63195,0.75132l0.75176,0.61095c-0.10624,0.13166 -0.22119,0.27324 -0.29134,0.36329l-0.76117,-0.59913c-0.20289,0.2588 -0.40361,0.51831 -0.59587,0.78036c-0.11213,0.15207 -0.21092,0.28778 -0.29456,0.40523l2.36731,1.68577c-0.59112,0.83822 -1.15382,1.70327 -1.65995,2.62096l-0.42326,-0.23584c0.1426,-0.25682 0.29549,-0.51858 0.45342,-0.78279l-0.83065,-0.49775c0.07336,-0.1225 0.15411,-0.25443 0.23883,-0.39098l0.82311,0.51064c0.23946,-0.38006 0.48281,-0.7604 0.74932,-1.14258l-2.39318,-1.64865c0.23247,-0.33807 0.40016,-0.56442 0.5797,-0.81128c0.4867,-0.65159 0.99354,-1.29921 1.55251,-1.93666l0.00002,0.00008l0,0.00001zm47.4603,0c0.55897,0.63745 1.06581,1.28508 1.55251,1.93666c0.17955,0.24686 0.34722,0.47322 0.5797,0.81128l-2.39318,1.64865c0.2665,0.38219 0.50986,0.76251 0.74934,1.14258l0.82311,-0.51064c0.08472,0.13655 0.16546,0.26849 0.23883,0.39098l-0.83065,0.49775c0.15793,0.26421 0.31081,0.52596 0.45342,0.78279l-0.42326,0.23584c-0.50613,-0.91777 -1.06883,-1.7828 -1.65995,-2.62096l2.36731,-1.68577c-0.08362,-0.11747 -0.18243,-0.25317 -0.29456,-0.40523c-0.19226,-0.26205 -0.39297,-0.52156 -0.59587,-0.78036l-0.76117,0.59913c-0.07012,-0.09006 -0.18509,-0.23163 -0.29134,-0.36329l0.75176,-0.61095c-0.20331,-0.24987 -0.41409,-0.50035 -0.63195,-0.75132l0.36593,-0.31712l0,-0.00001zm-50.41969,4.00701l0.41168,0.25547c-0.17538,0.28222 -0.34423,0.56284 -0.5054,0.84168l0.83926,0.4843c-0.08405,0.14681 -0.17519,0.30497 -0.23022,0.40497l-0.84654,-0.47139c-0.15933,0.28758 -0.31634,0.57541 -0.46472,0.86454c-0.0866,0.16787 -0.16246,0.31773 -0.22644,0.44692l2.60418,1.29048c-0.45096,0.92104 -0.8693,1.86398 -1.22376,2.85021l-0.45531,-0.16592c0.10015,-0.27611 0.2096,-0.55881 0.32364,-0.84463l-0.8993,-0.36035c0.05305,-0.13255 0.1122,-0.27558 0.17421,-0.42379l0.89338,0.37432c0.17621,-0.41311 0.35629,-0.82717 0.55897,-1.24664l-2.62394,-1.24989c0.17601,-0.37054 0.30555,-0.62067 0.44373,-0.89277c0.37739,-0.72026 0.77549,-1.43973 1.22645,-2.15739l0.00013,-0.00012l-0.00001,0.00001zm53.37705,0c0.45096,0.71772 0.84906,1.43716 1.22645,2.15739c0.13818,0.27211 0.26773,0.52224 0.44373,0.89277l-2.62394,1.24989c0.20268,0.41948 0.38275,0.83354 0.55897,1.24664l0.89338,-0.37432c0.062,0.14822 0.12117,0.29124 0.17421,0.42379l-0.8993,0.36035c0.11406,0.28582 0.2235,0.56852 0.32364,0.84463l-0.45531,0.16592c-0.35446,-0.98616 -0.7728,-1.92909 -1.22376,-2.85021l2.60418,-1.29048c-0.06398,-0.12919 -0.13984,-0.27906 -0.22644,-0.44692c-0.1484,-0.28913 -0.30541,-0.57696 -0.46474,-0.86454l-0.84654,0.47139c-0.05502,-0.1 -0.14617,-0.25817 -0.23022,-0.40497l0.83926,-0.4843c-0.16116,-0.27884 -0.33001,-0.55946 -0.5054,-0.84168l0.41184,-0.25534l-0.00001,-0.00001zm-55.66229,4.4238l0.44669,0.18716c-0.12849,0.30636 -0.25037,0.61026 -0.36537,0.91106l0.90523,0.34583c-0.05976,0.15822 -0.12466,0.32847 -0.16317,0.43589l-0.91063,-0.33156c-0.11176,0.30912 -0.22104,0.61827 -0.32176,0.92719c-0.05894,0.17943 -0.11026,0.33908 -0.15294,0.47678l2.77609,0.8632c-0.29944,0.98069 -0.56359,1.97771 -0.7574,3.00744l-0.47577,-0.09197c0.05513,-0.28845 0.11868,-0.58501 0.18605,-0.88525l-0.94509,-0.2135c0.03126,-0.13926 0.06697,-0.2897 0.10474,-0.44586l0.94159,0.22831c0.10857,-0.43573 0.22091,-0.87304 0.3546,-1.31925l-2.78912,-0.81963c0.1151,-0.39367 0.20367,-0.66115 0.297,-0.95167c0.25859,-0.77081 0.53782,-1.54424 0.86943,-2.32418l-0.00018,0l0.00001,0zm57.94955,0c0.33159,0.7799 0.61082,1.55336 0.86943,2.32418c0.09332,0.29051 0.18189,0.558 0.29698,0.95167l-2.78912,0.81963c0.1337,0.4462 0.24604,0.88352 0.3546,1.31925l0.94159,-0.22831c0.03777,0.15615 0.07347,0.30658 0.10474,0.44586l-0.94507,0.2135c0.06737,0.30024 0.13093,0.59679 0.18605,0.88525l-0.47579,0.09197c-0.19383,-1.02974 -0.45796,-2.02677 -0.7574,-3.00744l2.77609,-0.8632c-0.04268,-0.13768 -0.09401,-0.29733 -0.15294,-0.47678c-0.10071,-0.30893 -0.20999,-0.61807 -0.32176,-0.92719l-0.91063,0.33156c-0.0385,-0.10744 -0.1034,-0.27768 -0.16317,-0.43589l0.90523,-0.34583c-0.11498,-0.3008 -0.23687,-0.60468 -0.36537,-0.91106l0.44655,-0.18716zm-59.50563,4.72953l0.47091,0.11401c-0.07832,0.32279 -0.15084,0.64213 -0.21675,0.9573l0.94858,0.19845c-0.03387,0.16567 -0.07087,0.34417 -0.09182,0.45634l-0.95155,-0.18366c-0.06143,0.32289 -0.12076,0.64522 -0.17125,0.96619c-0.0297,0.18648 -0.05529,0.35237 -0.07567,0.49506l2.87772,0.41384c-0.14032,1.01563 -0.24311,2.04185 -0.27142,3.08922l-0.48438,-0.01561c0.00886,-0.29353 0.02459,-0.59615 0.04335,-0.90325l-0.96688,-0.06185c0.00886,-0.14246 0.02038,-0.29672 0.03288,-0.45686l0.96583,0.07691c0.03803,-0.4474 0.08003,-0.89708 0.14136,-1.35879l-2.88363,-0.36866c0.05158,-0.4069 0.09627,-0.68501 0.14244,-0.98661l0.00021,0c0.13323,-0.80195 0.28617,-1.60951 0.49004,-2.43198l0.00003,-0.00002l-0.00001,0zm61.06374,0c0.20387,0.82247 0.35682,1.63004 0.49004,2.43198l0.00021,0c0.04616,0.3016 0.09085,0.57971 0.14243,0.98661l-2.88363,0.36866c0.06133,0.4617 0.10332,0.91139 0.14136,1.35879l0.96581,-0.07691c0.0125,0.16014 0.02402,0.31441 0.03288,0.45686l-0.96688,0.06185c0.01876,0.30709 0.03449,0.60973 0.04335,0.90325l-0.48438,0.01561c-0.02829,-1.04737 -0.13109,-2.07358 -0.27142,-3.08922l2.87792,-0.41384c-0.02038,-0.14269 -0.04595,-0.30858 -0.07566,-0.49506c-0.05049,-0.32095 -0.10981,-0.64328 -0.17125,-0.96619l-0.95155,0.18366c-0.02094,-0.11216 -0.05795,-0.29066 -0.09182,-0.45634l0.94858,-0.19845c-0.06591,-0.31518 -0.13844,-0.63451 -0.21675,-0.9573l0.47077,-0.11399l-0.00001,0zm-61.36925,9.85591c0.02657,0.3311 0.05776,0.6567 0.0937,0.97666l0.96312,-0.10729c0.0198,0.16798 0.04012,0.34916 0.0552,0.46226l-0.96124,0.12235c0.04273,0.32583 0.08737,0.65045 0.13974,0.97103c0.03022,0.18643 0.05793,0.35208 0.0832,0.49399l2.86326,-0.50472c0.18429,1.00859 0.40745,2.01573 0.70814,3.01944l-0.46501,0.13607c-0.08347,-0.28158 -0.1632,-0.57388 -0.24125,-0.87154l-0.9378,0.24284c-0.03596,-0.13812 -0.0736,-0.28818 -0.11174,-0.44423l0.94159,-0.22831c-0.10364,-0.43695 -0.20466,-0.87685 -0.29078,-1.33459l-2.85491,0.54911c-0.07847,-0.40242 -0.12269,-0.6807 -0.17313,-0.9815l0,-0.00029c-0.12422,-0.80332 -0.23137,-1.61835 -0.29484,-2.46311l0.48277,-0.03816l-0.00002,0.00001zm61.67477,0l0.48277,0.0382c-0.06346,0.84483 -0.17062,1.65988 -0.29484,2.46311l0,0.00029c-0.05044,0.3008 -0.09466,0.57907 -0.17312,0.9815l-2.85491,-0.54911c-0.08613,0.45774 -0.18716,0.89764 -0.29078,1.33459l0.94159,0.22831c-0.03814,0.15606 -0.07579,0.30612 -0.11174,0.44423l-0.93782,-0.24284c-0.07805,0.29766 -0.15779,0.58996 -0.24125,0.87154l-0.46499,-0.13607c0.30069,-1.0038 0.52386,-2.01093 0.70814,-3.01944l2.86326,0.50472c0.02527,-0.1419 0.05298,-0.30754 0.08319,-0.49399c0.05236,-0.32058 0.09702,-0.6452 0.13974,-0.97103l-0.96122,-0.12235c0.01505,-0.1131 0.03538,-0.29428 0.05519,-0.46226l0.96312,0.10729c0.03595,-0.31999 0.06712,-0.64557 0.0937,-0.97666l-0.00002,-0.00003l-0.00001,-0.00002zm-60.89877,4.83977c0.07862,0.32273 0.16099,0.63951 0.24718,0.94977l0.93406,-0.25815c0.04585,0.16277 0.09479,0.33817 0.12762,0.44747l-0.92974,0.27267c0.09373,0.31506 0.18912,0.6288 0.2916,0.93714c0.05919,0.17934 0.11301,0.33823 0.16048,0.47436l2.74696,-0.95058c0.34171,0.9668 0.72187,1.92582 1.17771,2.86953l-0.43753,0.20813c-0.12703,-0.26486 -0.25221,-0.54102 -0.37641,-0.82259l-0.88745,0.38803c-0.05753,-0.13069 -0.11825,-0.27304 -0.18066,-0.42111l0.89338,-0.37406c-0.17152,-0.41508 -0.34083,-0.83356 -0.49839,-1.27191l-2.73189,0.99307c-0.1412,-0.38508 -0.22911,-0.65283 -0.32661,-0.94198l0.00021,0c-0.24983,-0.77367 -0.48501,-1.56147 -0.6815,-2.38581l0.47101,-0.11397l-0.00001,0zm60.12072,0l0.47093,0.11401c-0.19648,0.82426 -0.43165,1.61206 -0.68148,2.38581l0.00021,0c-0.09748,0.28915 -0.18541,0.5569 -0.32661,0.94198l-2.73189,-0.99307c-0.15756,0.43836 -0.32686,0.85685 -0.49839,1.27191l0.89338,0.37406c-0.06242,0.14807 -0.12315,0.29041 -0.18066,0.42111l-0.88745,-0.38803c-0.12422,0.28158 -0.24938,0.55773 -0.37641,0.82259l-0.43753,-0.20813c0.45587,-0.94369 0.83603,-1.90269 1.17773,-2.86953l2.74696,0.95058c0.04747,-0.13612 0.10129,-0.29501 0.16048,-0.47436c0.10248,-0.30835 0.19787,-0.62207 0.2916,-0.93714l-0.92974,-0.27267c0.03282,-0.10929 0.08177,-0.2847 0.12762,-0.44747l0.93406,0.25815c0.08618,-0.31028 0.16856,-0.62703 0.24718,-0.94977l0.00003,-0.00004l-0.00001,0zm-58.58909,4.65629c0.12875,0.30626 0.26024,0.60592 0.39445,0.89869l0.88126,-0.40255c0.07112,0.15347 0.1476,0.3192 0.19736,0.42192l-0.87507,0.41626c0.1424,0.29629 0.2864,0.59077 0.43645,0.87904c0.08686,0.16773 0.16503,0.31624 0.23345,0.44315l2.56203,-1.3725c0.49051,0.90064 1.01758,1.7876 1.61714,2.6474l-0.39904,0.27455c-0.16741,-0.24145 -0.33468,-0.49451 -0.50189,-0.75293l-0.81502,0.52329c-0.07747,-0.11996 -0.15998,-0.25061 -0.24502,-0.38695l0.82311,-0.51064c-0.23504,-0.38276 -0.46866,-0.76932 -0.6936,-1.17726l-2.54044,1.41203c-0.20044,-0.35792 -0.32938,-0.60811 -0.47147,-0.87825c-0.3692,-0.72447 -0.72581,-1.46546 -1.05035,-2.24831l0.44663,-0.18694l0,0.00001zm57.05542,0l0.44669,0.18688c-0.32456,0.78285 -0.68115,1.52386 -1.05035,2.24831c-0.14209,0.27011 -0.27101,0.52033 -0.47147,0.87825l-2.54044,-1.41203c-0.22494,0.40796 -0.45856,0.79451 -0.6936,1.17726l0.82311,0.51064c-0.08504,0.13636 -0.16755,0.26699 -0.24502,0.38695l-0.81502,-0.52329c-0.16721,0.25843 -0.33447,0.51148 -0.50189,0.75293l-0.39904,-0.27455c0.59955,-0.85978 1.12663,-1.74674 1.61714,-2.6474l2.56203,1.3725c0.06841,-0.12691 0.14659,-0.27542 0.23345,-0.44315c0.15006,-0.28828 0.29406,-0.58275 0.43645,-0.87904l-0.87507,-0.41626c0.04976,-0.10272 0.12624,-0.26844 0.19736,-0.42192l0.88126,0.40255c0.13422,-0.29277 0.26571,-0.59244 0.39445,-0.89869l-0.00006,0.00005l0,-0.00001zm-54.80482,4.35545c0.17565,0.28205 0.35264,0.55739 0.53151,0.82528l0.80669,-0.53674c0.09457,0.14031 0.19605,0.29204 0.26143,0.38561l-0.79806,0.54911c0.18757,0.27007 0.37649,0.53796 0.57026,0.79892l-0.00021,0c0.11234,0.1519 0.21317,0.28643 0.30077,0.40094l2.31232,-1.76c0.62697,0.81184 1.28798,1.60431 2.01618,2.35856l-0.35057,0.33425c-0.20347,-0.21198 -0.40863,-0.43544 -0.61471,-0.6642l-0.72187,0.64538c-0.09551,-0.10621 -0.19762,-0.22219 -0.30319,-0.3434l0.73156,-0.63436c-0.29276,-0.34081 -0.58453,-0.68547 -0.8713,-1.05276l-2.28462,1.79576c-0.25463,-0.32176 -0.42144,-0.54873 -0.60449,-0.793c-0.4793,-0.65702 -0.94894,-1.33217 -1.39338,-2.05385l0.41164,-0.25551l0.00001,0.00002zm52.55421,0l0.41168,0.25547c-0.44444,0.72173 -0.91409,1.39687 -1.39338,2.05385c-0.18305,0.24428 -0.34985,0.47124 -0.60447,0.793l-2.28462,-1.79576c-0.28678,0.36728 -0.57854,0.71196 -0.8713,1.05276l0.73156,0.63436c-0.10556,0.12121 -0.20769,0.23718 -0.30319,0.3434l-0.72187,-0.64538c-0.20608,0.22876 -0.41124,0.45222 -0.61471,0.6642l-0.35057,-0.33425c0.72819,-0.75427 1.3892,-1.54674 2.01618,-2.35856l2.31232,1.76c0.08759,-0.11452 0.18841,-0.24903 0.30075,-0.40094l-0.00021,0c0.19377,-0.26096 0.3827,-0.52885 0.57028,-0.79892l-0.79806,-0.54911c0.06539,-0.09357 0.16688,-0.24532 0.26143,-0.38561l0.80669,0.53674c0.17887,-0.26787 0.35586,-0.54321 0.53151,-0.82528l-0.00006,0.00004l0.00001,-0.00002zm-49.64166,3.94538c0.2181,0.25076 0.43686,0.49464 0.65592,0.73088l0.71137,-0.65747c0.11551,0.12361 0.23973,0.2573 0.31907,0.33935l-0.70113,0.66822c0.22785,0.23696 0.45697,0.47189 0.68956,0.69889l0,0.00021c0.135,0.13225 0.25586,0.24875 0.36053,0.34798l2.00459,-2.10286c0.74763,0.70258 1.52587,1.38059 2.36426,2.01033l-0.29347,0.38534c-0.23451,-0.17718 -0.47254,-0.36519 -0.71217,-0.55852l-0.6104,0.75132c-0.11114,-0.0898 -0.23038,-0.18849 -0.35381,-0.29149l0.62198,-0.74164c-0.34305,-0.29029 -0.68565,-0.58454 -1.02692,-0.90191l-1.97175,2.13378c-0.30242,-0.27747 -0.503,-0.47503 -0.72239,-0.68733l0,-0.00021c-0.57735,-0.57305 -1.14801,-1.16542 -1.70116,-1.80787l0.36593,-0.31702l0,0.00002zm46.72911,0l0.36593,0.31704c-0.55314,0.64243 -1.12379,1.23481 -1.70116,1.80787l0,0.00021c-0.21939,0.2123 -0.42,0.40986 -0.72241,0.68733l-1.97173,-2.13378c-0.34127,0.31737 -0.68388,0.61161 -1.02692,0.90191l0.62198,0.74172c-0.12344,0.103 -0.24266,0.20169 -0.35381,0.29149l-0.6104,-0.75132c-0.23963,0.19333 -0.47765,0.38134 -0.71217,0.55852l-0.29347,-0.38534c0.83845,-0.62976 1.61667,-1.30773 2.36426,-2.01033l2.00459,2.10286c0.10468,-0.09922 0.22553,-0.21571 0.36053,-0.34796l0,-0.00021c0.2326,-0.22699 0.46171,-0.46193 0.68956,-0.69889l-0.70113,-0.66822c0.07936,-0.08206 0.20355,-0.21576 0.31907,-0.33937l0.71137,0.65747c0.21903,-0.23624 0.4378,-0.48011 0.6559,-0.73088l0.00002,-0.0001l0,-0.00002zm-39.23591,2.82213c0.84951,0.57565 1.72531,1.12242 2.65287,1.61183l-0.22861,0.42702c-0.25959,-0.1379 -0.52465,-0.28634 -0.79189,-0.43939l-0.48385,0.83845c-0.1239,-0.07112 -0.25736,-0.14958 -0.39554,-0.23179l0.49705,-0.83065c-0.38474,-0.23246 -0.76971,-0.46901 -1.157,-0.72846l-1.60878,2.41856c-0.34254,-0.22623 -0.57226,-0.38973 -0.82257,-0.56469c-0.66082,-0.47464 -1.31792,-0.96965 -1.96583,-1.51663l0.31125,-0.37082c0.25504,0.21315 0.50937,0.41927 0.76307,0.61794l0.59856,-0.76127c0.13365,0.10379 0.27753,0.216 0.36887,0.28449l-0.5867,0.77069c0.26266,0.19806 0.52593,0.3939 0.79161,0.58137c0.15423,0.10927 0.29209,0.20523 0.41116,0.28665l1.64633,-2.3933l-0.00002,-0.00001zm31.74272,0l1.64622,2.39335c0.11906,-0.08144 0.25692,-0.17738 0.41116,-0.28665c0.26567,-0.18746 0.52895,-0.38331 0.79161,-0.58137l-0.5867,-0.77069c0.09134,-0.06849 0.23523,-0.18071 0.36887,-0.28449l0.59856,0.76127c0.25369,-0.19867 0.50803,-0.40479 0.76307,-0.61794l0.31125,0.37082c-0.64791,0.54698 -1.30498,1.04199 -1.96583,1.51663c-0.25031,0.17497 -0.48004,0.33846 -0.82258,0.56469l-1.60878,-2.41856c-0.38729,0.25945 -0.77225,0.49602 -1.15698,0.72846l0.49705,0.83065c-0.13818,0.08221 -0.27162,0.16068 -0.39554,0.23179l-0.48385,-0.83845c-0.26725,0.15304 -0.53229,0.30149 -0.79186,0.43939l-0.22861,-0.42702c0.92766,-0.48939 1.80346,-1.03618 2.65287,-1.61183l0.00008,-0.00004l-0.00003,0.00001zm-27.88919,2.21658c0.93,0.43422 1.8811,0.83572 2.87447,1.17242l-0.15805,0.45741c-0.27818,-0.09516 -0.56298,-0.19953 -0.85111,-0.30843l-0.34519,0.90433c-0.13365,-0.05063 -0.27783,-0.10711 -0.42731,-0.16645l0.35918,-0.89896c-0.41662,-0.16876 -0.83419,-0.34116 -1.25769,-0.53619l-1.20571,2.64192c-0.37401,-0.16928 -0.62663,-0.29434 -0.90147,-0.42757c-0.72769,-0.36429 -1.45479,-0.74919 -2.18115,-1.18695l0.24852,-0.41547c0.28557,0.17019 0.5694,0.33358 0.85138,0.48968l0.47039,-0.84626c0.14845,0.08138 0.30818,0.16947 0.40926,0.22265l-0.45719,0.85351c0.29068,0.15409 0.58169,0.30595 0.87373,0.44907c0.1696,0.08354 0.32081,0.15675 0.45126,0.21836l1.24669,-2.62307l0,-0.00001zm24.03566,0l1.24665,2.62319c0.13046,-0.06161 0.28166,-0.13481 0.45126,-0.21836c0.29205,-0.14313 0.58304,-0.29499 0.87373,-0.44907l-0.45719,-0.85351c0.10108,-0.05319 0.26083,-0.14128 0.40926,-0.22265l0.47039,0.84626c0.28198,-0.15609 0.56581,-0.31948 0.85138,-0.48968l0.24852,0.41547c-0.72643,0.43776 -1.45354,0.82266 -2.18115,1.18695c-0.27484,0.13323 -0.52747,0.25828 -0.90147,0.42757l-1.20571,-2.64192c-0.42351,0.19503 -0.84106,0.36744 -1.25769,0.53619l0.35918,0.89896c-0.14948,0.05935 -0.29366,0.11582 -0.42731,0.16645l-0.34519,-0.90433c-0.28814,0.10891 -0.57293,0.21328 -0.85111,0.30843l-0.15805,-0.45741c0.99346,-0.33671 1.94456,-0.73822 2.87447,-1.17242l0.00004,-0.00012l0,0.00001z" fill="#ffc705" id="svg_103"/>
   <g stroke="null" transform="matrix(0.521041 0 0 0.520368 104.129 -240.956)" id="svg_104">
    <g stroke="null" id="svg_105">
     <path stroke="#ffc705" d="m-136.51251,466.70996c-1.003,0.74162 -2.7301,3.2196 -2.7301,4.7274c0,1.5077 1.2223,2.7296 2.7301,2.7296c1.5077,0 2.7301,-1.2218 2.7301,-2.7296c0,-1.5077 -1.7271,-3.9857 -2.7301,-4.7274z" fill="#d40000" stroke-width="0.10007" id="svg_106"/>
     <path stroke="null" d="m-136.51251,466.70796c-0.74248,0.54899 -2.0209,2.3833 -2.0209,3.4994c0,1.1161 0.90483,2.0206 2.0209,2.0206c1.1161,0 2.0209,-0.90445 2.0209,-2.0206c0,-1.1161 -1.2785,-2.9505 -2.0209,-3.4994z" fill="#d45500" id="svg_107"/>
     <path stroke="null" d="m-136.51251,466.70796c-0.50171,0.37097 -1.3656,1.6105 -1.3656,2.3647c0,0.75418 0.61142,1.3653 1.3656,1.3653c0.75418,0 1.3656,-0.61116 1.3656,-1.3653c0,-0.75418 -0.86389,-1.9937 -1.3656,-2.3647z" fill="#d47f00" id="svg_108"/>
     <path stroke="null" d="m-136.51251,466.70796c-0.25018,0.18499 -0.68097,0.80308 -0.68097,1.1792c0,0.37608 0.30489,0.68084 0.68097,0.68084c0.37608,0 0.68097,-0.30476 0.68097,-0.68084c0,-0.37608 -0.43079,-0.99417 -0.68097,-1.1792z" fill="#fff" id="svg_109"/>
    </g>
    <g stroke="null" id="svg_110">
     <path stroke="#ffc705" d="m-140.01253,472.82397c-1.003,0.74162 -2.7301,3.2196 -2.7301,4.7274c0,1.5077 1.2223,2.7296 2.7301,2.7296c1.5077,0 2.7301,-1.2218 2.7301,-2.7296c0,-1.5077 -1.7271,-3.9857 -2.7301,-4.7274z" fill="#093" stroke-width="0.10007" id="svg_111"/>
     <path stroke="null" d="m-140.01253,472.82397c-0.74248,0.54899 -2.0209,2.3833 -2.0209,3.4994c0,1.1161 0.90483,2.0206 2.0209,2.0206c1.1161,0 2.0209,-0.90445 2.0209,-2.0206c0,-1.1161 -1.2785,-2.9505 -2.0209,-3.4994z" fill="#6dc235" id="svg_112"/>
     <path stroke="null" d="m-140.01253,472.82397c-0.50171,0.37097 -1.3656,1.6105 -1.3656,2.3647c0,0.75418 0.61142,1.3653 1.3656,1.3653c0.75418,0 1.3656,-0.61116 1.3656,-1.3653c0,-0.75418 -0.86389,-1.9937 -1.3656,-2.3647z" fill="#b5d98b" id="svg_113"/>
     <path stroke="null" d="m-140.01253,472.82397c-0.25018,0.18499 -0.68097,0.80308 -0.68097,1.1792c0,0.37608 0.30489,0.68084 0.68097,0.68084c0.37608,0 0.68097,-0.30476 0.68097,-0.68084c0,-0.37608 -0.43079,-0.99417 -0.68097,-1.1792z" fill="#fff" id="svg_114"/>
    </g>
    <g stroke="null" id="svg_115">
     <path stroke="#ffc705" d="m-133.01253,472.82896c-1.003,0.74162 -2.7301,3.2196 -2.7301,4.7274c0,1.5077 1.2223,2.7296 2.7301,2.7296c1.5077,0 2.7301,-1.2218 2.7301,-2.7296c0,-1.5077 -1.7271,-3.9857 -2.7301,-4.7274z" fill="#1b4392" stroke-width="0.10007" id="svg_116"/>
     <path stroke="null" d="m-133.01253,472.82896c-0.74248,0.54899 -2.0209,2.3833 -2.0209,3.4994c0,1.1161 0.90483,2.0206 2.0209,2.0206c1.1161,0 2.0209,-0.90445 2.0209,-2.0206c0,-1.1161 -1.2785,-2.9505 -2.0209,-3.4994z" fill="#1b6692" id="svg_117"/>
     <path stroke="null" d="m-133.01253,472.82896c-0.50171,0.37097 -1.3656,1.6105 -1.3656,2.3647c0,0.75418 0.61142,1.3653 1.3656,1.3653c0.75418,0 1.3656,-0.61116 1.3656,-1.3653c0,-0.75418 -0.86389,-1.9937 -1.3656,-2.3647z" fill="#1b8b92" id="svg_118"/>
     <path stroke="null" d="m-133.01253,472.82896c-0.25018,0.18499 -0.68097,0.80308 -0.68097,1.1792c0,0.37608 0.30489,0.68084 0.68097,0.68084c0.37608,0 0.68097,-0.30476 0.68097,-0.68084c0,-0.37608 -0.43079,-0.99417 -0.68097,-1.1792z" fill="#fff" id="svg_119"/>
    </g>
   </g>
   <g stroke="#ffc705" transform="matrix(0.521041 0 0 0.520368 -54.3925 -60.1679)" fill="#fff" stroke-width="0.2" id="svg_120">
    <path stroke="null" d="m167.72748,232.16097c0.83966,1.2051 6.4999,1.803 6.4999,5.9614c0,2.279 -2.0996,4.3986 -3.5874,4.4287l-5.825,0c-1.4878,-0.0301 -3.5874,-2.1497 -3.5874,-4.4287c0,-4.1584 5.6602,-4.7563 6.4999,-5.9614z" id="svg_121"/>
    <path stroke="null" d="m167.72748,233.54097c0.83966,1.2051 4.9997,1.7095 4.9997,4.6752c0,2.6766 -1.9202,4.2994 -3.4081,4.3294l-3.1833,0c-1.4878,-0.0301 -3.4086,-1.6529 -3.4086,-4.3294c0,-2.9657 4.1606,-3.4701 5.0002,-4.6752l0.0001,0z" id="svg_122"/>
    <path stroke="null" d="m167.72748,232.16097c-0.83966,1.2051 -6.4999,1.803 -6.4999,5.9614c0,2.279 2.0996,4.3986 3.5874,4.4287l5.825,0c1.4878,-0.0301 3.5874,-2.1497 3.5874,-4.4287c0,-4.1584 -5.6602,-4.7563 -6.4999,-5.9614z" id="svg_123"/>
    <path stroke="null" d="m167.72748,233.54097c-0.83966,1.2051 -4.9997,1.7095 -4.9997,4.6752c0,2.6766 1.9202,4.2994 3.4081,4.3294l3.1833,0c1.4878,-0.0301 3.4086,-1.6529 3.4086,-4.3294c0,-2.9657 -4.1606,-3.4701 -5.0002,-4.6752l-0.0001,0z" id="svg_124"/>
    <path stroke="null" d="m167.72748,253.30097c-0.83966,-1.2051 -6.4999,-1.803 -6.4999,-5.9614c0,-2.279 2.0996,-4.3986 3.5874,-4.4287l5.825,0c1.4878,0.0301 3.5874,2.1497 3.5874,4.4287c0,4.1584 -5.6602,4.7563 -6.4999,5.9614z" id="svg_125"/>
    <path stroke="null" d="m167.72748,251.91097c-0.83966,-1.2051 -4.9997,-1.7095 -4.9997,-4.6752c0,-2.6766 1.9202,-4.2994 3.4081,-4.3294l3.1833,0c1.4878,0.0301 3.4086,1.6529 3.4086,4.3294c0,2.9657 -4.1606,3.4701 -5.0002,4.6752l-0.0001,0z" id="svg_126"/>
    <path stroke="null" d="m167.72748,232.16097c-0.83966,1.2051 -6.4999,1.803 -6.4999,5.9614c0,2.279 2.0996,4.3986 3.5874,4.4287l5.825,0c1.4878,-0.0301 3.5874,-2.1497 3.5874,-4.4287c0,-4.1584 -5.6602,-4.7563 -6.4999,-5.9614z" id="svg_127"/>
    <path stroke="null" d="m167.72748,233.54097c-0.83966,1.2051 -4.9997,1.7095 -4.9997,4.6752c0,2.6766 1.9202,4.2994 3.4081,4.3294l3.1833,0c1.4878,-0.0301 3.4086,-1.6529 3.4086,-4.3294c0,-2.9657 -4.1606,-3.4701 -5.0002,-4.6752l-0.0001,0z" id="svg_128"/>
    <path stroke="null" d="m130.60548,252.23097c3.9906,2.5001 10.797,0 10.821,-4.22c0.0203,-3.6687 2.9707,-4.852 3.3369,-5.1004c-4.0659,0.0655 -9.4577,2.1612 -10.814,3.9029c-1.2261,1.6809 -1.1192,4.5079 -3.3438,5.4174l-0.0001,0.0001z" id="svg_129"/>
    <path stroke="null" d="m132.16348,252.13097c4.0607,0.87643 7.542,-1.1747 7.8884,-3.3848c0.54588,-3.2892 1.1615,-4.6075 4.7106,-5.8446c-2.6332,-0.26344 -6.7846,-1.2931 -7.2155,-2.8385c-0.86985,0.60519 -0.55929,2.0331 0.0462,2.5231c-0.5355,0.38489 -0.68519,0.94427 -0.68519,1.4658c0,0.62771 0.55166,1.4278 1.6014,1.4278c1.159,0 1.5166,-0.63091 1.5166,-1.4219c0,-0.87341 -1.5166,-0.92774 -1.5166,0.0351c0,-0.96595 1.5166,-0.90644 1.5166,-0.0351c0,0.78952 -0.35573,1.4219 -1.5166,1.4219c-0.53349,0 -0.89542,-0.23895 -0.89542,-0.23895c-4.6171,1.7788 -3.5883,6.0023 -5.4505,6.8901l0.00001,0.00005z" stroke-linecap="square" id="svg_130"/>
    <path stroke="null" d="m151.00348,235.70097c0.08544,-1.3146 1.1606,-2.2854 1.9976,-3.0407c-0.37207,-0.30455 -1.1725,-0.37434 -1.681,-0.0351c-0.5228,-0.5566 -1.3151,-0.73031 -1.7475,0.0916c-0.44097,-0.24532 -1.2969,-0.37603 -1.589,0.17824c0.99746,0.623 2.4357,1.4528 3.02,2.806l-0.0001,-0.00004z" stroke-linejoin="round" id="svg_131"/>
    <path stroke="null" d="m180.72748,232.16097c-0.83966,1.2051 -5.512,2.3243 -5.512,5.29c0,3.6687 -2.1218,4.852 -2.488,5.1004l6.7878,0c1.1242,-0.0227 4.4503,-2.0532 4.4503,-5.1762c0,-3.2697 -2.3985,-4.0091 -3.2382,-5.2141l0.0001,-0.0001z" id="svg_132"/>
    <path stroke="null" d="m180.72748,233.37097c-0.83966,1.2051 -4.3377,1.9276 -4.3377,4.8933c0,2.6766 -2.1623,4.0383 -2.5285,4.2867l3.8778,0c1.4878,-0.0301 5.0622,-2.222 5.0622,-4.8986c0,-2.8334 -1.5152,-3.2252 -2.0738,-4.2814z" id="svg_133"/>
    <path stroke="null" d="m190.22748,232.16097c-0.83966,1.2051 -5.512,2.3243 -5.512,5.29c0,3.6687 -2.9707,4.852 -3.3369,5.1004l7.2508,0c1.1242,-0.0227 4.4558,-2.0532 4.4558,-5.1762c0,-3.2697 -2.3406,-4.4142 -2.8578,-5.2141l0.0001,-0.0001z" id="svg_134"/>
    <path stroke="null" d="m190.22748,233.37097c-0.83966,1.2051 -4.3377,1.9276 -4.3377,4.8933c0,2.6766 -2.8438,4.0383 -3.21,4.2867l4.115,0c1.4878,-0.0301 4.9939,-2.222 4.9939,-4.8986c0,-2.8334 -0.84829,-3.4569 -1.5612,-4.2814z" id="svg_135"/>
    <path stroke="null" d="m160.84248,235.70097c0.54433,-1.1493 1.9711,-2.1326 2.8603,-2.6548c-0.25632,-0.34589 -1.4113,-0.67618 -1.9197,-0.33692c-0.50926,-0.6694 -1.6028,-0.8119 -2.2217,0.008c-0.44097,-0.24532 -1.556,-0.30287 -1.8482,0.2514c0.91477,0.65607 2.545,1.5408 3.1293,2.7328l0,-0.00048z" stroke-linejoin="round" id="svg_136"/>
    <path stroke="null" d="m154.72848,232.16097c0.83966,1.2051 5.512,2.3243 5.512,5.29c0,3.6687 2.1218,4.852 2.488,5.1004l-6.7878,0c-1.1242,-0.0227 -4.4503,-2.0532 -4.4503,-5.1762c0,-3.2697 2.3985,-4.0091 3.2382,-5.2141l-0.0001,-0.0001z" id="svg_137"/>
    <path stroke="null" d="m154.72848,233.37097c0.83966,1.2051 4.3377,1.9276 4.3377,4.8933c0,2.6766 2.1623,4.0383 2.5285,4.2867l-3.8778,0c-1.4878,-0.0301 -5.0622,-2.222 -5.0622,-4.8986c0,-2.8334 1.5152,-3.2252 2.0738,-4.2814z" id="svg_138"/>
    <path stroke="null" d="m145.22848,232.16097c0.83966,1.2051 5.5119,2.3243 5.5119,5.29c0,3.6687 2.9707,4.852 3.3369,5.1004l-7.2508,0c-1.1242,-0.0227 -4.4558,-2.0532 -4.4558,-5.1762c0,-3.2697 2.3406,-4.4142 2.8578,-5.2141l0,-0.0001z" id="svg_139"/>
    <path stroke="null" d="m145.22848,233.37097c0.83966,1.2051 4.3377,1.9276 4.3377,4.8933c0,2.6766 2.8438,4.0383 3.21,4.2867l-4.115,0c-1.4878,-0.0301 -4.9939,-2.222 -4.9939,-4.8986c0,-2.8334 0.84829,-3.4569 1.5612,-4.2814z" id="svg_140"/>
    <path stroke="null" d="m184.45748,235.70097c-0.0854,-1.3146 -1.1606,-2.2854 -1.9976,-3.0407c0.37207,-0.30455 1.1726,-0.37434 1.681,-0.0351c0.5228,-0.5566 1.315,-0.73031 1.7475,0.0916c0.44097,-0.24532 1.2969,-0.37603 1.589,0.17824c-0.99745,0.623 -2.4357,1.4528 -3.02,2.806l0.0001,-0.00004z" stroke-linejoin="round" id="svg_141"/>
    <path stroke="null" d="m174.61748,235.70097c-0.54433,-1.1493 -1.9711,-2.1326 -2.8603,-2.6548c0.25631,-0.34589 1.4112,-0.67618 1.9197,-0.33692c0.50926,-0.6694 1.6028,-0.8119 2.2217,0.008c0.44097,-0.24532 1.556,-0.30287 1.8482,0.2514c-0.91478,0.65607 -2.545,1.5408 -3.1293,2.7328l0,-0.00048z" stroke-linejoin="round" id="svg_142"/>
    <path stroke="null" d="m180.72748,253.30097c-0.83966,-1.2051 -5.512,-2.3243 -5.512,-5.29c0,-3.6687 -2.1218,-4.852 -2.488,-5.1004l6.7878,0c1.1242,0.0227 4.4503,2.0532 4.4503,5.1762c0,3.2697 -2.3985,4.0091 -3.2382,5.2141l0.0001,0.0001z" id="svg_143"/>
    <path stroke="null" d="m180.72748,252.09097c-0.83966,-1.2051 -4.3377,-1.9276 -4.3377,-4.8933c0,-2.6766 -2.1623,-4.0383 -2.5285,-4.2867l3.8778,0c1.4878,0.0301 5.0622,2.222 5.0622,4.8986c0,2.8334 -1.5152,3.2252 -2.0738,4.2814z" id="svg_144"/>
    <path stroke="null" d="m190.22748,253.30097c-0.83966,-1.2051 -5.512,-2.3243 -5.512,-5.29c0,-3.6687 -2.9707,-4.852 -3.3369,-5.1004l7.2508,0c1.1242,0.0227 4.4558,2.0532 4.4558,5.1762c0,3.2697 -2.3406,4.4142 -2.8578,5.2141l0.0001,0.0001z" id="svg_145"/>
    <path stroke="null" d="m190.22748,252.09097c-0.83966,-1.2051 -4.3377,-1.9276 -4.3377,-4.8933c0,-2.6766 -2.8438,-4.0383 -3.21,-4.2867l4.115,0c1.4878,0.0301 4.9939,2.222 4.9939,4.8986c0,2.8334 -0.84829,3.4569 -1.5612,4.2814z" id="svg_146"/>
    <path stroke="null" d="m160.84248,249.75097c0.54433,1.1493 1.9711,2.1326 2.8603,2.6548c-0.25632,0.34589 -1.4113,0.67618 -1.9197,0.33692c-0.50926,0.6694 -1.6028,0.8119 -2.2217,-0.008c-0.44097,0.24532 -1.556,0.30287 -1.8482,-0.2514c0.91477,-0.65607 2.545,-1.5408 3.1293,-2.7328l0,0.00048z" stroke-linejoin="round" id="svg_147"/>
    <path stroke="null" d="m154.72848,253.30097c0.83966,-1.2051 5.512,-2.3243 5.512,-5.29c0,-3.6687 2.1218,-4.852 2.488,-5.1004l-6.7878,0c-1.1242,0.0227 -4.4503,2.0532 -4.4503,5.1762c0,3.2697 2.3985,4.0091 3.2382,5.2141l-0.0001,0.0001z" id="svg_148"/>
    <path stroke="null" d="m154.72848,252.09097c0.83966,-1.2051 4.3377,-1.9276 4.3377,-4.8933c0,-2.6766 2.1623,-4.0383 2.5285,-4.2867l-3.8778,0c-1.4878,0.0301 -5.0622,2.222 -5.0622,4.8986c0,2.8334 1.5152,3.2252 2.0738,4.2814z" id="svg_149"/>
    <path stroke="null" d="m145.22848,253.30097c0.83966,-1.2051 5.5119,-2.3243 5.5119,-5.29c0,-3.6687 2.9707,-4.852 3.3369,-5.1004l-7.2508,0c-1.1242,0.0227 -4.4558,2.0532 -4.4558,5.1762c0,3.2697 2.3406,4.4142 2.8578,5.2141l0,0.0001z" id="svg_150"/>
    <path stroke="null" d="m145.22848,252.09097c0.83966,-1.2051 4.3377,-1.9276 4.3377,-4.8933c0,-2.6766 2.8438,-4.0383 3.21,-4.2867l-4.115,0c-1.4878,0.0301 -4.9939,2.222 -4.9939,4.8986c0,2.8334 0.84829,3.4569 1.5612,4.2814z" id="svg_151"/>
    <path stroke="null" d="m184.45748,249.75097c-0.0854,1.3146 -1.1606,2.2854 -1.9976,3.0407c0.37207,0.30455 1.1726,0.37434 1.681,0.0351c0.5228,0.5566 1.315,0.73031 1.7475,-0.0916c0.44097,0.24532 1.2969,0.37603 1.589,-0.17824c-0.99745,-0.623 -2.4357,-1.4528 -3.02,-2.806l0.0001,0.00004z" stroke-linejoin="round" id="svg_152"/>
    <path stroke="null" d="m174.61748,249.75097c-0.54433,1.1493 -1.9711,2.1326 -2.8603,2.6548c0.25631,0.34589 1.4112,0.67618 1.9197,0.33692c0.50926,0.6694 1.6028,0.8119 2.2217,-0.008c0.44097,0.24532 1.556,0.30287 1.8482,-0.2514c-0.91478,-0.65607 -2.545,-1.5408 -3.1293,-2.7328l0,0.00048z" stroke-linejoin="round" stroke-miterlimit="4.5" id="svg_153"/>
    <path stroke="null" d="m151.00348,249.75097c0.08544,1.3146 1.1606,2.2854 1.9976,3.0407c-0.37207,0.30455 -1.1725,0.37434 -1.681,0.0351c-0.5228,0.5566 -1.3151,0.73031 -1.7475,-0.0916c-0.44097,0.24532 -1.2969,0.37603 -1.589,-0.17824c0.99746,-0.623 2.4357,-1.4528 3.02,-2.806l-0.0001,0.00004z" stroke-linejoin="round" id="svg_154"/>
    <path stroke="null" d="m141.84348,249.76097c0.08544,1.3146 1.2267,2.2771 2.0637,3.0324c-0.37207,0.30455 -0.94104,0.37434 -1.4495,0.0351c-0.5228,0.5566 -1.3647,0.73031 -1.7971,-0.0916c-0.44097,0.24532 -1.1894,0.37603 -1.4815,-0.17824c0.99746,-0.623 2.0802,-1.4445 2.6645,-2.7977l-0.0001,0.00004z" stroke-linejoin="round" id="svg_155"/>
    <path stroke="null" d="m193.61748,249.76097c-0.0854,1.3146 -1.2267,2.2771 -2.0637,3.0324c0.37207,0.30455 0.94104,0.37434 1.4495,0.0351c0.5228,0.5566 1.3647,0.73031 1.7971,-0.0916c0.44097,0.24532 1.1894,0.37603 1.4815,-0.17824c-0.99745,-0.623 -2.0802,-1.4445 -2.6645,-2.7977l0.0001,0.00004z" stroke-linejoin="round" id="svg_156"/>
    <path stroke="null" d="m204.84748,252.23097c-3.9906,2.5001 -10.797,0 -10.821,-4.22c-0.0203,-3.6687 -2.9707,-4.852 -3.3369,-5.1004c4.0659,0.0655 9.4578,2.1612 10.814,3.9029c1.2261,1.6809 1.1192,4.5079 3.3438,5.4174l0.0001,0.0001z" id="svg_157"/>
    <path stroke="null" d="m203.28748,252.13097c-4.0607,0.87643 -7.542,-1.1747 -7.8884,-3.3848c-0.54588,-3.2892 -1.1615,-4.6075 -4.7106,-5.8446c2.6332,-0.26344 6.7846,-1.2931 7.2155,-2.8385c0.86985,0.60519 0.55929,2.0331 -0.0462,2.5231c0.5355,0.38489 0.68519,0.94427 0.68519,1.4658c0,0.62771 -0.55166,1.4278 -1.6014,1.4278c-1.159,0 -1.5166,-0.63091 -1.5166,-1.4219c0,-0.87341 1.5166,-0.92774 1.5166,0.0351c0,-0.96595 -1.5166,-0.90644 -1.5166,-0.0351c0,0.78952 0.35573,1.4219 1.5166,1.4219c0.53349,0 0.89542,-0.23895 0.89542,-0.23895c4.6171,1.7788 3.5883,6.0023 5.4504,6.8901l0.00009,0.00005z" stroke-linecap="square" id="svg_158"/>
   </g>
   <g stroke="null" transform="matrix(0.521041 0 0 0.520368 52.2129 -64.8383)" fill="#ffc705" id="svg_159">
    <g stroke="null" transform="matrix(0.14551 0 0 0.14551 -72.536 138.64)" id="svg_160">
     <g stroke="null" fill="#ffc705" id="svg_161">
      <path stroke="null" d="m233.66225,406.34238c-1.7896,-2.4318 -2.7582,-5.3692 -2.763,-8.3883c-0.004,-7.8384 6.3498,-14.196 14.188,-14.198c6.2424,-0.0008 11.303,-5.0616 11.304,-11.304c-0.001,-6.2422 -5.0618,-11.3 -11.304,-11.3c-13.284,0 -24.053,10.769 -24.053,24.053c0,8.8304 4.8585,16.943 12.629,21.138l-0.001,-0.0007zm11.425,-30.453a3.4361,3.4361 0 0 1 -3.4342,-3.4377a3.4361,3.4361 0 0 1 3.4342,-3.4342a3.4361,3.4361 0 0 1 3.4377,3.4342a3.4361,3.4361 0 0 1 -3.4377,3.4377z" id="svg_162"/>
      <path stroke="null" d="m256.50853,364.05816c1.78955,2.43179 2.75818,5.36926 2.76291,8.38836c0.004,7.83851 -6.34969,14.19638 -14.18765,14.19838c-6.24241,0.0008 -11.30328,5.0616 -11.30401,11.30401c0.00111,6.24222 5.06178,11.29964 11.30401,11.30037c13.28359,0 24.05429,-10.76943 24.05429,-24.05429c0,-8.83039 -4.8585,-16.94328 -12.62864,-21.13774l-0.00091,0.00091zm-11.42474,30.45289a3.43622,3.43622 0 0 1 3.43422,3.43768a3.43622,3.43622 0 0 1 -3.43422,3.43422a3.43622,3.43622 0 0 1 -3.43768,-3.43422a3.43622,3.43622 0 0 1 3.43768,-3.43768z" id="svg_163"/>
     </g>
    </g>
    <path stroke="null" d="m-30.94452,176.44097a5.95,5.95 0 0 1 -5.9283,5.5092a5.95,5.95 0 0 1 -5.9294,-5.4813a6.15,6.15 0 0 0 -0.2207,1.6061a6.15,6.15 0 0 0 6.1501,6.15a6.15,6.15 0 0 0 6.15,-6.15a6.15,6.15 0 0 0 -0.2217,-1.634z" id="svg_164"/>
    <circle stroke="null" cx="-6.22752" cy="177.10097" r="0.5" id="svg_165"/>
    <circle stroke="null" cx="-36.87252" cy="176.00097" r="4.95" id="svg_166"/>
    <path stroke="null" d="m-40.37252,198.95097l0,2.15l7,0l0,-2.15l-7,0z" id="svg_167"/>
    <path stroke="null" transform="translate(64.3148 58.78) scale(0.26458 0.26458)" d="m-311.00483,424.13519c-0.34772,0.00004 -0.69559,0.0107 -1.043,0.0371c-0.49017,0.034 -0.97873,0.0942 -1.4629,0.17774c-0.48416,0.0835 -0.9643,0.19073 -1.4375,0.32226c-0.47395,0.13153 -0.9404,0.28687 -1.3984,0.46485c-0.45774,0.17801 -0.90608,0.37876 -1.3438,0.60156c-0.43842,0.22337 -0.86544,0.46837 -1.2793,0.73437c-0.41311,0.26495 -0.81289,0.55058 -1.1973,0.85547c-0.38513,0.30539 -0.75479,0.63023 -1.1074,0.97266c-0.3515,0.34242 -0.68718,0.70225 -1.0039,1.0781c-0.31748,0.37607 -0.61478,0.76787 -0.89258,1.1738c-0.2759,0.40551 -0.53406,0.82465 -0.76953,1.2559c-0.23433,0.43109 -0.44938,0.87373 -0.64062,1.3262c-0.19276,0.45287 -0.35869,0.91501 -0.50586,1.3848c-0.14362,0.46953 -0.2693,0.94599 -0.36719,1.4277c-0.0983,0.4817 -0.16962,0.968 -0.21875,1.457c-0.0491,0.4887 -0.0762,0.97956 -0.0762,1.4707l0.004,41.387l-41.387,0l0,66.896l94.299,0l0.002,5.8594l-16.064,0c-1.1483,-0.00034 -2.0788,-0.93171 -2.0781,-2.0801l-20.033,0c-8.3179,-0.00004 -14.717,6.7306 -14.717,14.363l51.943,0c8.2351,0 15.686,-6.6256 15.686,-15.686l0,-3.0234l0.002,-16.818l-25.836,0c0.20939,-0.60076 0.38678,-1.2277 0.51563,-1.8906l27.59,0l0,21.76c-0.004,8.0851 -7.9105,15.025 -15.971,15.658l1.2266,0c8.5493,0.00004 17.376,-7.1091 17.389,-15.658l0,-23.838l-29.992,0c0.28725,-5.1903 -3.0053,-10.669 -7.8027,-12.846l0,-63.5c-0.00045,-1.4618 1.1847,-2.6469 2.6465,-2.6465l0,18.709c13.065,0 19.577,18.504 6.4238,18.504l0,13.621l6.2734,0c-2.3254,-1.0855 -3.8129,-3.4182 -3.8164,-5.9844c0.00049,-3.653 2.9622,-6.6138 6.6152,-6.6133c3.6522,0.00049 6.6128,2.961 6.6133,6.6133c-0.003,2.5658 -1.4899,4.8983 -3.8144,5.9844l8.3496,0c0,-2.6763 2.3456,-5.4805 3.5859,-5.4805l0,-68.031l-52.9091,0.00049zm42.963,12.221l0.002,0c-0.0907,0.41763 -0.25197,2.3745 0.33008,2.9453c2.493,1.6865 3.9852,4.4999 3.9863,7.5098c0,3.0072 -1.4956,5.817 -3.9863,7.502c-1.5791,-2.1833 -2.4318,-4.8076 -2.4375,-7.502c0,-2.4789 0.72279,-4.8986 2.0664,-6.9707c-0.43729,-0.83157 -0.20283,-2.8134 0.0391,-3.4844l-0.00008,0zm0.625,0.21484c-0.0412,0.72412 0.0728,1.6029 0.16992,1.8906c0.10469,0.3137 0.41212,0.72703 0.88086,0.9414c2.987,1.2911 6.1236,4.2396 6.127,7.4102c-0.00075,3.3325 -3.6532,6.3182 -6.7676,7.5039c2.7757,-1.4749 5.2536,-4.3606 5.2559,-7.5039c-0.00076,-3.1167 -2.4489,-5.9832 -5.1875,-7.4707c-0.28498,-0.21316 -0.44836,-0.53658 -0.49024,-0.90429c-0.0431,-0.35944 -0.14626,-1.3718 0.0117,-1.8672l-0.00004,-0.00001zm-79.682,43.697c5.0261,7.2055 7.7298,15.775 7.748,24.561c-0.004,9.0173 -2.8178,17.559 -7.748,24.629l0,-49.19zm85.115,8.2773l0,0.002a1.7015,1.7015 0 0 1 1.7031,1.7012a1.7015,1.7015 0 0 1 -1.7031,1.7012a1.7015,1.7015 0 0 1 -0.99804,-0.32618l0,0.002c-0.24791,-0.17658 -1.0699,0.0142 -1.0586,0.88281c-0.91241,-1.545 0.0119,-3.7718 1.834,-3.9434a1.7015,1.7015 0 0 1 0.22265,-0.0195l-0.00001,-0.00013zm-43.926,64.471l1.3574,0.0195c-4.8213,0.51198 -8.8904,3.8746 -10.387,8.4863l-2.6426,0c1.6376,-5.0638 6.3499,-8.4964 11.672,-8.5039l0.0002,-0.0019zm-5.2852,0.002l1.3574,0.0195c-4.8213,0.51201 -8.8904,3.8746 -10.387,8.4863l-2.6426,0c1.6376,-5.0638 6.3498,-8.4969 11.672,-8.5039l0.0002,-0.0019z" id="svg_168"/>
    <path stroke="null" d="m-81.92252,185.85097l0.007,5.2999c0.0002,1.9551 1.5548,3.5312 3.5099,3.5388l12.883,0.0109c1.842,0 2.9378,-1.294 3.2949,-2.3497c0.74315,-1.9442 1.9421,-3.0812 2.899,-3.6478c-0.39335,0.42006 -1.4922,1.6293 -1.494,3.6478l0,6.6001l-5.6002,0a0.75,0.75 0 0 1 -0.74983,0.74983l-10.199,0c-2.154,-0.00001 -3.8505,1.696 -3.8504,3.8499l25.6,0c1.29,-1.1561 2.9677,-1.7968 4.7,-1.7999c1.7328,0.003 3.4096,0.64345 4.7,1.7999l5.2999,0l0,-17.7l-5.2999,0l0,13.006c-1.3027,-1.8679 -2.0471,-4.1242 -2.05,-6.5066c0.001,-2.3238 0.72369,-4.5917 2.05,-6.4999l-35.70037,0.00077zm3.6003,2.3875a2.95,2.95 0 0 1 2.4236,1.2748c0.59726,0.96399 0.3762,1.9166 0.3762,2.2578c0.00001,-1.0217 -0.82827,-1.85 -1.85,-1.85c-0.88939,0 -1.4738,0.36386 -1.4738,1.2216c0,0.28755 0.17506,0.62839 0.49455,0.62839c0.22089,-0.00002 0.39996,-0.17909 0.39997,-0.39998c0,-0.42365 -0.39436,-0.46619 -0.5364,-0.37569l0,-0.00053c0.0848,-0.25364 0.18646,-0.34416 0.41135,-0.34416c0.4695,-0.00005 0.85011,0.38058 0.85007,0.85008c0.00004,0.4695 -0.38057,0.85012 -0.85007,0.85007c-0.3412,0 -0.54068,-0.16677 -0.71521,-0.39119c-0.0976,-0.138 -0.22876,-0.5396 -0.39067,-0.61702c-0.52152,-0.23763 -0.77765,0.62012 -1.0904,0.62012c-0.15518,0 -0.62773,-0.003 -0.65681,-1.0904c0.0162,0.90781 0.32737,1.4087 0.77308,1.4087c0.2691,0 0.31317,-0.57361 0.58343,-0.57361c0.22121,0 0.31909,0.2075 0.38602,0.42323c-0.00003,-0.001 0.00003,-0.003 0,-0.004c0.16578,0.85162 0.91476,1.4945 1.8149,1.4945c0.82178,0 1.5174,-0.53613 1.7586,-1.2774l-0.001,0.007c0.17999,-0.37674 0.24237,-0.89791 0.24237,-1.1622a2.95,2.95 0 0 1 2.9502,-2.9502a2.95,2.95 0 0 1 2.4236,1.2748c0.59726,0.96399 0.3762,1.9166 0.3762,2.2578c0.00001,-1.0217 -0.82827,-1.85 -1.85,-1.85c-0.8894,0 -1.4738,0.36386 -1.4738,1.2216c0,0.28755 0.17505,0.62839 0.49454,0.62839c0.22089,-0.00001 0.39996,-0.17909 0.39998,-0.39998c0,-0.42365 -0.39436,-0.46619 -0.53641,-0.37569l0,-0.00053c0.0848,-0.25364 0.18647,-0.34416 0.41135,-0.34416c0.4695,-0.00005 0.85012,0.38058 0.85007,0.85008c0.00005,0.46951 -0.38057,0.85012 -0.85007,0.85007c-0.3412,0 -0.54067,-0.16677 -0.7152,-0.39119c-0.0976,-0.138 -0.22877,-0.53959 -0.39068,-0.61701c-0.52152,-0.23763 -0.77764,0.62011 -1.0904,0.62011c-0.15518,0 -0.62772,-0.003 -0.65681,-1.0904c0.0162,0.90781 0.32737,1.4087 0.77308,1.4087c0.26911,0 0.31317,-0.57361 0.58343,-0.57361c0.22121,0 0.31909,0.2075 0.38602,0.42323c-0.00003,-0.001 0.00004,-0.003 0,-0.004c0.16579,0.85162 0.91476,1.4945 1.8149,1.4945c0.82177,0.00001 1.5174,-0.53613 1.7586,-1.2774l-0.001,0.007c0.17998,-0.37674 0.24236,-0.8979 0.24236,-1.1622a2.95,2.95 0 0 1 2.9502,-2.9502a2.95,2.95 0 0 1 2.434,1.2924c0.58378,0.95798 0.36587,1.9011 0.36587,2.2402c0.00001,-1.0217 -0.82828,-1.85 -1.85,-1.85c-0.8894,0 -1.4738,0.36386 -1.4738,1.2216c0,0.28755 0.17506,0.62839 0.49454,0.62839c0.2209,-0.00001 0.39997,-0.17909 0.39998,-0.39998c0,-0.42365 -0.39436,-0.46619 -0.5364,-0.37568l0,-0.00053c0.0848,-0.25364 0.18646,-0.34417 0.41134,-0.34417c0.46951,-0.00005 0.85012,0.38058 0.85008,0.85008c0.00004,0.46951 -0.38057,0.85013 -0.85008,0.85008c-0.3412,0 -0.54067,-0.16678 -0.7152,-0.3912c-0.0976,-0.13799 -0.22876,-0.53959 -0.39068,-0.61701c-0.52152,-0.23763 -0.77764,0.62011 -1.0904,0.62011c-0.15517,0 -0.62772,-0.003 -0.6568,-1.0904c0.0162,0.90781 0.32736,1.4087 0.77307,1.4087c0.26911,0 0.31317,-0.57361 0.58343,-0.57361c0.22121,0 0.31909,0.2075 0.38603,0.42323c-0.00004,-0.001 0.00003,-0.003 0,-0.004c0.16578,0.85162 0.91476,1.4945 1.8149,1.4945c0.82177,0.00001 1.5174,-0.53613 1.7586,-1.2774l-0.001,0.007c0.0957,-0.2424 0.57397,-0.0625 0.51883,0.16433a2.34,2.34 0 0 1 -2.2262,1.6232l-12.8,0a2.95,2.95 0 0 1 -2.9502,-2.9497a2.95,2.95 0 0 1 2.9502,-2.9502l-0.00005,0.00024zm1.0775,12.362l0.35915,0.005c-1.2756,0.13547 -2.3523,1.0252 -2.7482,2.2453l-0.69919,0c0.43327,-1.3398 1.6801,-2.248 3.0882,-2.25l0.00004,-0.0003zm1.3984,0l0.35915,0.005c-1.2756,0.13546 -2.3522,1.0252 -2.7482,2.2453l-0.69918,0c0.43327,-1.3398 1.6801,-2.248 3.0882,-2.25l0.00003,-0.0003z" id="svg_169"/>
    <path stroke="null" d="m-40.37252,188.30097l0,2.15l7,0l0,-2.15l-7,0z" id="svg_170"/>
    <path stroke="null" d="m-7.36652,162.34097c-0.43522,1.8182 2.4438,1.9019 2.4438,2.8763c0,1.1408 -1.3311,1.5494 -1.7787,1.9647c-0.40839,0.38335 -0.66462,0.92594 -0.66507,1.5281c-0.00007,1.1599 0.94023,2.1002 2.1001,2.1001c1.1599,0.00007 2.1002,-0.94023 2.1001,-2.1001c0,-1.8179 -1.6727,-2.5843 -2.4882,-1.5637c-0.00053,0.00053 -0.00053,0.001 -0.001,0.002c-0.0717,0.0887 -0.11086,0.19916 -0.11111,0.31316c-0.00012,0.27632 0.22391,0.50035 0.50023,0.50023c0.27612,-0.00016 0.49984,-0.22411 0.49971,-0.50023c0.00005,-0.065 -0.0126,-0.12946 -0.0372,-0.18965c0.2213,-0.12912 0.61236,0.15997 0.61236,0.57552c-0.00006,0.50312 -0.48126,0.9132 -1.0749,0.91327c-0.59361,-0.00007 -1.0748,-0.48126 -1.0749,-1.0749c0,-0.34099 0.35684,-0.7754 0.99839,-1.0723c0.36877,-0.16406 1.1007,-0.39361 1.1007,-1.3956c0,-1.1702 -3.2521,-1.2033 -3.1243,-2.8765l-0.00001,-0.0004z" id="svg_171"/>
    <path stroke="null" d="m-23.96552,181.49097c-0.8894,0 -1.4738,0.36386 -1.4738,1.2216c0,0.28755 0.17506,0.62838 0.49454,0.62838c0.2209,-0.00001 0.39996,-0.17908 0.39998,-0.39997c0,-0.42365 -0.39436,-0.46619 -0.5364,-0.37569l0,-0.00053c0.0848,-0.25364 0.18646,-0.34416 0.41134,-0.34416c0.4695,-0.00005 0.85012,0.38057 0.85008,0.85007c0.00004,0.46951 -0.38058,0.85013 -0.85008,0.85008c-0.3412,0 -0.54067,-0.16677 -0.7152,-0.39119c-0.0976,-0.138 -0.2287,-0.53948 -0.39061,-0.6169c-0.52153,-0.23763 -0.77771,0.62 -1.0904,0.62c-0.15517,0 -0.62772,-0.003 -0.65681,-1.0904c0.0162,0.90781 0.32737,1.4087 0.77309,1.4087c0.2691,0 0.31316,-0.57361 0.58342,-0.57361c0.22122,0 0.31909,0.2075 0.38602,0.42323c-0.00003,-0.001 0.00004,-0.003 0,-0.004c0.16579,0.85162 0.91477,1.4945 1.8149,1.4945c1.0217,0.00001 1.85,-0.82829 1.85,-1.85c0.00001,-1.0217 -0.82828,-1.85 -1.85,-1.85l-0.00007,-0.00011z" id="svg_172"/>
    <path stroke="null" d="m-23.96552,171.05097c-0.8894,0 -1.4738,0.36386 -1.4738,1.2216c0,0.28755 0.17506,0.62838 0.49454,0.62838c0.2209,-0.00001 0.39996,-0.17908 0.39998,-0.39997c0,-0.42365 -0.39436,-0.46619 -0.5364,-0.37569l0,-0.00053c0.0848,-0.25364 0.18646,-0.34416 0.41134,-0.34416c0.4695,-0.00005 0.85012,0.38057 0.85008,0.85007c0.00004,0.46951 -0.38058,0.85013 -0.85008,0.85008c-0.3412,0 -0.54067,-0.16677 -0.7152,-0.39119c-0.0976,-0.138 -0.2287,-0.53948 -0.39061,-0.6169c-0.52153,-0.23763 -0.77771,0.62 -1.0904,0.62c-0.15517,0 -0.62772,-0.003 -0.65681,-1.0904c0.0162,0.90781 0.32737,1.4087 0.77309,1.4087c0.2691,0 0.31316,-0.57361 0.58342,-0.57361c0.22122,0 0.31909,0.2075 0.38602,0.42323c-0.00003,-0.001 0.00004,-0.003 0,-0.004c0.16579,0.85162 0.91477,1.4945 1.8149,1.4945c1.0217,0.00001 1.85,-0.82828 1.85,-1.85c0.00001,-1.0217 -0.82828,-1.85 -1.85,-1.85l-0.00007,-0.00011z" id="svg_173"/>
    <path stroke="null" d="m-23.96552,176.27097c-0.8894,0 -1.4738,0.36386 -1.4738,1.2216c0,0.28755 0.17506,0.62838 0.49454,0.62838c0.2209,-0.00001 0.39996,-0.17908 0.39998,-0.39997c0,-0.42365 -0.39436,-0.46619 -0.5364,-0.37569l0,-0.00053c0.0848,-0.25364 0.18646,-0.34416 0.41134,-0.34416c0.4695,-0.00005 0.85012,0.38057 0.85008,0.85007c0.00004,0.46951 -0.38058,0.85013 -0.85008,0.85008c-0.3412,0 -0.54067,-0.16677 -0.7152,-0.39119c-0.0976,-0.138 -0.2287,-0.53948 -0.39061,-0.6169c-0.52153,-0.23763 -0.77771,0.62 -1.0904,0.62c-0.15517,0 -0.62772,-0.003 -0.65681,-1.0904c0.0162,0.90781 0.32737,1.4087 0.77309,1.4087c0.2691,0 0.31316,-0.57361 0.58342,-0.57361c0.22122,0 0.31909,0.2075 0.38602,0.42323c-0.00003,-0.001 0.00004,-0.003 0,-0.004c0.16579,0.85162 0.91477,1.4945 1.8149,1.4945c1.0217,0.00001 1.85,-0.82828 1.85,-1.85c0.00001,-1.0217 -0.82828,-1.85 -1.85,-1.85l-0.00007,-0.00011z" id="svg_174"/>
    <path stroke="null" d="m-40.37252,185.85097l3.5,1.9766l3.5,-1.9766l-3.5,0l-3.5,0z" id="svg_175"/>
    <path stroke="null" d="m-40.37252,201.57097l3.5,1.9766l3.5001,-1.9766l-3.5001,0l-3.5,0z" id="svg_176"/>
    <path stroke="null" d="m-71.75252,163.55097c1.2536,1.8691 2.6212,3.9079 3.9067,5.8244l0.00053,0.001c0.30798,0.45796 0.92873,0.57984 1.387,0.27233l1.0981,-0.73638c0.45804,-0.30725 1.0784,-0.18564 1.3865,0.27181l0.001,0.002l8.3452,12.443c0,-1.5349 2.162,-3.1927 3.5424,-2.3957c3.3418,1.8876 6.6839,3.7751 10.026,5.6627l5.1816,0c-5.463,0 -8.3884,-2.6358 -8.846,-3.421l-6.2673,-9.6681c-6.5871,-2.7517 -13.174,-5.5036 -19.762,-8.2553l0.00027,-0.00076z" id="svg_177"/>
    <path stroke="null" d="m-59.02252,178.25097c-0.8894,0 -1.4738,0.36386 -1.4738,1.2216c0,0.28755 0.17506,0.62838 0.49454,0.62838c0.2209,-0.00001 0.39996,-0.17908 0.39998,-0.39997c0,-0.42365 -0.39436,-0.46619 -0.5364,-0.37569l0,-0.00053c0.0848,-0.25364 0.18646,-0.34416 0.41134,-0.34416c0.4695,-0.00005 0.85012,0.38057 0.85008,0.85007c0.00004,0.46951 -0.38058,0.85013 -0.85008,0.85008c-0.3412,0 -0.5658,-0.16695 -0.7152,-0.39119c-0.21542,-0.31577 -0.2163,-0.65757 -0.37821,-0.79345c-0.48188,-0.36968 -0.74858,0.49181 -1.0238,0.0151l-2.1553,-3.2134c-0.95739,0.0382 -1.6773,0.21238 -2.1436,-0.95962c0.18027,1.5706 1.1147,1.8082 2.1369,1.6951l2.0484,3.0541c0.51965,0.77473 1.1374,-1.2298 1.1374,0.40253c0,0.6997 0.85056,1.4612 1.7978,1.4612c1.0217,0.00002 1.85,-0.82827 1.85,-1.85c0.00001,-1.0218 -0.82828,-1.85 -1.85,-1.85l-0.00005,-0.00015z" id="svg_178"/>
    <path stroke="null" d="m-62.01252,173.80097c-0.8894,0 -1.4738,0.36386 -1.4738,1.2216c0,0.28755 0.17506,0.62838 0.49454,0.62838c0.2209,-0.00001 0.39996,-0.17908 0.39998,-0.39997c0,-0.42365 -0.39437,-0.46619 -0.5364,-0.37569l0,-0.00053c0.0848,-0.25364 0.18646,-0.34416 0.41134,-0.34416c0.4695,-0.00005 0.85012,0.38057 0.85008,0.85007c0.00004,0.46951 -0.38058,0.85013 -0.85008,0.85008c-0.3412,0 -0.5658,-0.16695 -0.7152,-0.39119c-0.21543,-0.31577 -0.2163,-0.65757 -0.37821,-0.79345c-0.48189,-0.36968 -0.74859,0.49181 -1.0238,0.0151l-2.1553,-3.2134c-0.9574,0.0382 -1.6773,0.21238 -2.1436,-0.95961c0.18026,1.5706 1.1147,1.8082 2.1369,1.6951l2.0484,3.0541c0.51964,0.77472 1.1374,-1.2298 1.1374,0.40252c0,0.69971 0.85055,1.4612 1.7978,1.4612c1.0217,0.00001 1.85,-0.82828 1.85,-1.85c0.00001,-1.0217 -0.82828,-1.85 -1.85,-1.85l-0.00005,-0.00015z" id="svg_179"/>
    <path stroke="null" d="m-65.00252,169.34097c-0.8894,0 -1.4738,0.36386 -1.4738,1.2216c0,0.28755 0.17506,0.62838 0.49454,0.62838c0.2209,-0.00001 0.39996,-0.17908 0.39998,-0.39997c0,-0.42365 -0.39436,-0.46619 -0.5364,-0.37569l0,-0.00053c0.0848,-0.25364 0.18646,-0.34416 0.41134,-0.34416c0.4695,-0.00005 0.85012,0.38057 0.85008,0.85007c0.00004,0.46951 -0.38058,0.85013 -0.85008,0.85008c-0.3412,0 -0.5658,-0.16695 -0.7152,-0.39119c-0.21542,-0.31577 -0.2163,-0.65757 -0.37821,-0.79345c-0.48188,-0.36968 -0.74858,0.49181 -1.0238,0.0151l-5.0385,-7.5122c-0.9574,0.0382 -1.6773,0.21238 -2.1436,-0.9596c0.18027,1.5706 1.1147,1.8082 2.1369,1.695l4.9317,7.3529c0.51965,0.77472 1.1374,-1.2298 1.1374,0.40252c0,0.69971 0.85056,1.4612 1.7978,1.4612c1.0217,0.00001 1.85,-0.82828 1.85,-1.85c0.00001,-1.0217 -0.82828,-1.85 -1.85,-1.85l-0.00015,-0.00006z" id="svg_180"/>
    <path stroke="null" d="m-70.85252,161.16097c0.18027,1.5706 1.1147,1.8082 2.1368,1.695l0.83458,1.2444l0.69505,0.29093l15.661,7.0941l6.5221,10.009c0.38897,0.60498 3.1059,3.4055 8.1313,3.4055c-4.138,0 -7.2443,-2.574 -7.7572,-3.4055l-6.2926,-10.17l-17.197,-8.324l-0.58963,-0.87902c-0.95739,0.0382 -1.6772,0.21235 -2.1435,-0.95963l-0.0009,-0.00078z" id="svg_181"/>
    <path stroke="null" d="m-36.44252,156.50897c-0.45894,0.38045 -0.83608,1.0706 -0.90331,1.5622c-0.0364,0.34656 0.19431,1.0394 0.031,1.373c-0.3677,0.67146 -0.99012,0.66997 -0.99012,1.4883c0,1.2488 1.0067,3.2165 1.0067,3.9026c0,0.79446 -0.93156,1.1837 -1.4283,0.7338c-0.5003,-0.47403 0.23564,-1.5325 0.23564,-2.3166c0,-0.65961 -1.1637,-1.0733 -0.49144,-1.9958c-0.645,0.37057 -0.98018,0.92755 -0.70745,1.4594c0.16379,0.31518 0.368,0.82983 -0.0434,1.0154c-0.46045,0.16762 -0.73487,-0.36761 -0.63717,-1.1219c-1.2439,1.9638 -0.5086,4.3176 0.94827,5.4317c0.2913,1.2253 1.3952,2.0087 2.5518,2.0087s2.2605,-0.78335 2.5518,-2.0087c1.4569,-1.1141 2.1922,-3.4679 0.94826,-5.4317c0.0977,0.75429 -0.17672,1.2895 -0.63717,1.1219c-0.41141,-0.18561 -0.2072,-0.70026 -0.0434,-1.0154c0.27273,-0.5318 -0.0624,-1.0888 -0.70745,-1.4594c0.6723,0.92247 -0.49144,1.3361 -0.49144,1.9958c0,0.78418 0.73594,1.8426 0.23564,2.3166c-0.49678,0.44992 -1.4283,0.0607 -1.4283,-0.7338c0,-0.67935 1.2092,-2.6452 1.2092,-3.8215c0,-1.2351 -0.80421,-2.2583 -1.4082,-2.9755c-0.24935,-0.32838 -0.28835,-0.92595 0.19896,-1.5291l-0.00012,0z" id="svg_182"/>
    <path stroke="null" d="m-46.93252,203.55097c-2.226,-1.8563 -6.124,-1.8885 -8.5721,0.49972l-25.718,0.00027l0,0.55l25.815,0c2.3808,-2.4197 5.7088,-2.8749 8.4755,-1.05l-0.0004,0.00001z" id="svg_183"/>
   </g>
  </g>
 </g>
</svg>